<svg width="40" height="40" viewBox="0 0 40 40" fill="none" xmlns="http://www.w3.org/2000/svg">
<path d="M20 40C31.0457 40 40 31.0457 40 20C40 8.95431 31.0457 0 20 0C8.95431 0 0 8.95431 0 20C0 31.0457 8.95431 40 20 40Z" fill="#9F9EFF" fill-opacity="0.2"/>
<path d="M22.5531 27.9296V30.6209L20.207 32L17.9277 30.6209V27.9296L20.207 29.3086L22.5531 27.9296ZM10 18.6209L12.2793 20V24.6154L16.2043 26.962V29.6534L10 25.9944V18.6209ZM30.414 18.6209V26.0056L24.143 29.6645V26.9731L28.068 24.6265V20.0111L30.414 18.6209ZM24.1319 14.962L26.478 16.3411V19.0324L22.5531 21.3791V26.0612L20.2737 27.4402L18.0055 26.0612V21.3679L13.936 19.0213V16.3299L16.2821 14.9509L20.207 17.2975L24.1319 14.962ZM13.936 20.9564L16.2154 22.3355V25.0269L13.936 23.6478V20.9564ZM26.478 20.9564V23.6478L24.1986 25.0269V22.3355L26.478 20.9564ZM12.2793 12.6154L14.6254 13.9944L12.2793 15.3735V18.0649L10 16.6858V13.9944L12.2793 12.6154ZM28.1347 12.6154L30.4807 13.9944V16.6858L28.1347 18.0649V15.3735L25.8553 13.9944L28.1347 12.6154ZM20.207 12.6154L22.5531 13.9944L20.207 15.3735L17.9277 13.9944L20.207 12.6154ZM20.207 8L26.478 11.6589L24.1986 13.038L20.2737 10.6914L16.271 13.038L13.9916 11.6589L20.207 8Z" fill="#F3BA2F"/>
</svg>
