<svg width="73" height="88" viewBox="0 0 73 88" fill="none" xmlns="http://www.w3.org/2000/svg">
<g clip-path="url(#clip0_705_591)">
<path fill-rule="evenodd" clip-rule="evenodd" d="M6.90993 31.5C5.99562 31.4771 5.08075 31.5071 4.16992 31.59C3.49998 31.6101 2.86299 31.8852 2.38905 32.3591C1.91512 32.8331 1.64 33.4701 1.61992 34.14C1.53701 35.0508 1.50696 35.9657 1.52992 36.88V80.17C1.50731 81.0876 1.53735 82.0058 1.61992 82.92C1.67007 83.5799 1.94137 84.2035 2.38992 84.69C2.87685 85.1441 3.50561 85.416 4.16992 85.46C5.08075 85.5429 5.99562 85.573 6.90993 85.55H65.7999C66.7001 85.5847 67.6016 85.5681 68.4999 85.5C69.1638 85.4544 69.7921 85.1827 70.2799 84.73C70.7296 84.2452 70.9981 83.62 71.0399 82.96C71.1318 82.0464 71.1652 81.1279 71.1399 80.21V36.88C71.1654 35.9655 71.132 35.0503 71.0399 34.14C70.9995 33.4768 70.731 32.8479 70.2799 32.36C69.7882 31.9134 69.1621 31.6425 68.4999 31.59C67.5891 31.5071 66.6742 31.4771 65.7599 31.5H6.90993ZM3.01993 33.02C3.36227 32.7124 3.80022 32.5323 4.25992 32.51C5.14108 32.4341 6.02579 32.4074 6.90993 32.43H65.7599C66.6474 32.4075 67.5354 32.4342 68.4199 32.51C68.8796 32.5323 69.3176 32.7124 69.6599 33.02C69.9639 33.3638 70.1404 33.8016 70.1599 34.26C70.2453 35.1406 70.2753 36.0257 70.2499 36.91V43.82L37.4199 64.71C37.0977 64.9168 36.7228 65.0267 36.3399 65.0267C35.957 65.0267 35.5822 64.9168 35.2599 64.71L2.42992 43.82V36.91C2.40732 36.0259 2.43403 35.1412 2.50992 34.26C2.53218 33.8003 2.71232 33.3624 3.01993 33.02ZM2.42992 44.92V80.14C2.40712 81.0241 2.43383 81.9089 2.50992 82.79C2.53621 83.2518 2.71567 83.6916 3.01993 84.04C3.36366 84.344 3.80146 84.5205 4.25992 84.54C5.14083 84.6203 6.0256 84.6503 6.90993 84.63H65.7599C66.6476 84.6503 67.5357 84.6202 68.4199 84.54C68.8784 84.5205 69.3162 84.344 69.6599 84.04C69.966 83.6936 70.1427 83.2519 70.1599 82.79C70.2455 81.9094 70.2756 81.0244 70.2499 80.14V44.92L37.9199 65.5C37.4487 65.8032 36.9002 65.9644 36.3399 65.9644C35.7796 65.9644 35.2311 65.8032 34.7599 65.5L2.42992 44.92Z" fill="#9698A4" stroke="#9799A4" stroke-width="3" stroke-miterlimit="10"/>
</g>
<path d="M36 48C49.2548 48 60 37.2548 60 24C60 10.7452 49.2548 0 36 0C22.7452 0 12 10.7452 12 24C12 37.2548 22.7452 48 36 48Z" fill="white"/>
<path d="M30.1532 29.5901L19.6445 22.9531V26.4099L28.5136 32.0593C28.9924 32.3634 29.5466 32.5276 30.1137 32.5333C30.6866 32.5251 31.2464 32.3612 31.7334 32.0593L52.3556 18.9235V15.4667L30.1532 29.5901Z" fill="#3B096D"/>
<defs>
<clipPath id="clip0_705_591">
<rect width="72.68" height="57.05" fill="white" transform="translate(0 30)"/>
</clipPath>
</defs>
</svg>
