<svg width="12" height="12" viewBox="0 0 12 12" fill="none" xmlns="http://www.w3.org/2000/svg">
<g clip-path="url(#clip0_525:486)">
<path fill-rule="evenodd" clip-rule="evenodd" d="M4.48354 1.20703L4.46334 1.20703C3.79457 1.20703 3.26459 1.20703 2.83726 1.24158C2.4003 1.27691 2.0304 1.35063 1.69211 1.5209C1.12881 1.80444 0.671632 2.26163 0.388091 2.82493C0.217815 3.16321 0.144102 3.53311 0.108768 3.97007C0.0742125 4.3974 0.0742153 4.92739 0.0742188 5.59615V5.61636V5.63656C0.0742153 6.30532 0.0742125 6.83531 0.108768 7.26264C0.144102 7.6996 0.217815 8.0695 0.388091 8.40778C0.671632 8.97108 1.12881 9.42827 1.69211 9.71181C2.0304 9.88208 2.4003 9.9558 2.83726 9.99113C3.26459 10.0257 3.79457 10.0257 4.46333 10.0257H4.48354H6.80424H6.82446C7.49322 10.0257 8.02319 10.0257 8.45052 9.99113C8.88748 9.9558 9.25739 9.88208 9.59567 9.71181C10.159 9.42827 10.6161 8.97108 10.8997 8.40778C11.07 8.0695 11.1437 7.6996 11.179 7.26264C11.2136 6.83531 11.2136 6.30533 11.2136 5.63657V5.61636V5.59614C11.2136 4.92738 11.2136 4.3974 11.179 3.97007C11.1437 3.53311 11.07 3.16321 10.8997 2.82493C10.6161 2.26163 10.159 1.80444 9.59567 1.5209C9.25739 1.35063 8.88748 1.27691 8.45052 1.24158C8.02319 1.20703 7.49321 1.20703 6.82444 1.20703L6.80424 1.20703H4.48354ZM2.10948 2.35006C2.2963 2.25603 2.53188 2.19758 2.91208 2.16684C3.29761 2.13566 3.79008 2.13531 4.48354 2.13531H6.80424C7.4977 2.13531 7.99017 2.13566 8.3757 2.16684C8.7559 2.19758 8.99148 2.25603 9.1783 2.35006C9.56372 2.54407 9.87653 2.85688 10.0705 3.24229C10.0842 3.26939 10.0971 3.29752 10.1092 3.32696L6.72369 5.48139C6.06487 5.90064 5.22291 5.90064 4.56409 5.48139L1.17855 3.32696C1.19072 3.29752 1.20361 3.26939 1.21725 3.24229C1.41125 2.85688 1.72406 2.54407 2.10948 2.35006ZM1.01722 4.32459C1.00271 4.66397 1.0025 5.08006 1.0025 5.61636C1.0025 6.30981 1.00285 6.80229 1.03403 7.18782C1.06477 7.56802 1.12322 7.8036 1.21725 7.99042C1.41125 8.37584 1.72406 8.68864 2.10948 8.88265C2.2963 8.97668 2.53188 9.03513 2.91208 9.06587C3.29761 9.09705 3.79009 9.0974 4.48354 9.0974H6.80424C7.4977 9.0974 7.99017 9.09705 8.3757 9.06587C8.7559 9.03513 8.99148 8.97668 9.1783 8.88265C9.56372 8.68864 9.87653 8.37584 10.0705 7.99042C10.1646 7.8036 10.223 7.56802 10.2538 7.18782C10.2849 6.80229 10.2853 6.30981 10.2853 5.61636C10.2853 5.08006 10.2851 4.66397 10.2706 4.32459L7.22206 6.26454C6.25917 6.8773 5.02862 6.8773 4.06572 6.26454L1.01722 4.32459Z" fill="#9597A3"/>
</g>
<defs>
<clipPath id="clip0_525:486">
<rect width="11.1393" height="11.1393" fill="white" transform="translate(0.0742188 0.278809)"/>
</clipPath>
</defs>
</svg>
