<svg width="10" height="11" viewBox="0 0 10 11" fill="none" xmlns="http://www.w3.org/2000/svg">
<path fill-rule="evenodd" clip-rule="evenodd" d="M2.44641 3.35688C2.44641 1.95557 3.5824 0.81958 4.98371 0.81958C6.38502 0.81958 7.521 1.95557 7.521 3.35688V3.98206C7.521 4.10605 7.62023 4.20591 7.74393 4.21435C7.92272 4.22655 8.09161 4.25285 8.25534 4.32067C8.63527 4.47804 8.93713 4.7799 9.0945 5.15983C9.16232 5.32357 9.18862 5.49245 9.20082 5.67125C9.21254 5.843 9.21254 6.05221 9.21253 6.30282V6.31705V6.93728V6.95589C9.21254 7.57169 9.21254 8.05969 9.1804 8.45304C9.14754 8.85528 9.07897 9.19563 8.92062 9.50641C8.66385 10.0104 8.25413 10.4201 7.75018 10.6768C7.4394 10.8352 7.09905 10.9038 6.69681 10.9366C6.30347 10.9688 5.81546 10.9688 5.19967 10.9688H5.18105H4.78637H4.76775C4.15196 10.9688 3.66395 10.9688 3.2706 10.9366C2.86836 10.9038 2.52801 10.8352 2.21724 10.6768C1.71329 10.4201 1.30357 10.0104 1.0468 9.50641C0.888447 9.19563 0.819879 8.85528 0.787015 8.45304C0.754877 8.05969 0.75488 7.57168 0.754883 6.95589L0.754883 6.93728V6.31705L0.754883 6.30282C0.754879 6.05221 0.754875 5.843 0.766594 5.67125C0.778793 5.49245 0.805092 5.32357 0.872913 5.15983C1.03029 4.7799 1.33214 4.47804 1.71208 4.32067C1.87581 4.25285 2.0447 4.22655 2.22349 4.21435C2.34719 4.20591 2.44641 4.10605 2.44641 3.98206V3.35688ZM3.29218 3.35688C3.29218 3.82398 3.67084 4.20264 4.13794 4.20264H5.82947C6.29658 4.20264 6.67524 3.82398 6.67524 3.35688C6.67524 2.42267 5.91791 1.66535 4.98371 1.66535C4.0495 1.66535 3.29218 2.42267 3.29218 3.35688ZM2.28106 5.05815C2.14533 5.06741 2.07924 5.08404 2.03574 5.10205C1.86304 5.17359 1.72583 5.3108 1.6543 5.48349C1.63628 5.52699 1.61966 5.59309 1.6104 5.72882C1.60088 5.86835 1.60065 6.04855 1.60065 6.31705V6.93728C1.60065 7.57582 1.60098 8.02929 1.62997 8.38417C1.65856 8.73411 1.71291 8.95076 1.80038 9.12244C1.97606 9.46724 2.2564 9.74758 2.60121 9.92326C2.77288 10.0107 2.98954 10.0651 3.33948 10.0937C3.69435 10.1227 4.14782 10.123 4.78637 10.123H5.18105C5.81959 10.123 6.27307 10.1227 6.62794 10.0937C6.97788 10.0651 7.19454 10.0107 7.36621 9.92326C7.71102 9.74758 7.99135 9.46724 8.16704 9.12244C8.25451 8.95076 8.30885 8.73411 8.33744 8.38417C8.36644 8.02929 8.36677 7.57582 8.36677 6.93728V6.31705C8.36677 6.04855 8.36654 5.86835 8.35702 5.72882C8.34776 5.59309 8.33114 5.52699 8.31312 5.48349C8.24158 5.3108 8.10438 5.17359 7.93168 5.10205C7.88818 5.08404 7.82209 5.06741 7.68635 5.05815C7.54682 5.04863 7.36662 5.0484 7.09812 5.0484H2.8693C2.60079 5.0484 2.42059 5.04863 2.28106 5.05815Z" fill="#9597A3"/>
</svg>
