<svg width="12" height="12" viewBox="0 0 12 12" fill="none" xmlns="http://www.w3.org/2000/svg">
<path fill-rule="evenodd" clip-rule="evenodd" d="M4.65193 3.52748C4.65193 2.75847 5.27534 2.13507 6.04435 2.13507C6.81336 2.13507 7.43677 2.75847 7.43677 3.52748C7.43677 4.2965 6.81336 4.9199 6.04435 4.9199C5.27534 4.9199 4.65193 4.2965 4.65193 3.52748ZM6.04435 1.20679C4.76266 1.20679 3.72365 2.2458 3.72365 3.52748C3.72365 4.80917 4.76266 5.84818 6.04435 5.84818C7.32603 5.84818 8.36505 4.80917 8.36505 3.52748C8.36505 2.2458 7.32603 1.20679 6.04435 1.20679ZM2.11932 10.1466C2.5677 8.48904 4.16001 7.2406 6.08061 7.2406C8.00121 7.2406 9.59352 8.48904 10.0419 10.1466C10.1088 10.3941 10.3637 10.5404 10.6111 10.4735C10.8586 10.4065 11.0049 10.1517 10.938 9.90424C10.3755 7.82501 8.40281 6.31232 6.08061 6.31232C3.75841 6.31232 1.78568 7.82501 1.22325 9.90424C1.15632 10.1517 1.30265 10.4065 1.55009 10.4735C1.79754 10.5404 2.05239 10.3941 2.11932 10.1466Z" fill="#9597A3"/>
</svg>
