<svg width="52" height="60" viewBox="0 0 52 60" fill="none" xmlns="http://www.w3.org/2000/svg">
<path d="M31.3827 49.8239V56.5524L25.5175 60L19.8192 56.5524V49.8239L25.5175 53.2715L31.3827 49.8239ZM0 26.5524L5.69836 30V41.5385L15.5107 47.405V54.1334L0 44.9861V26.5524ZM51.035 26.5524V45.0139L35.3576 54.1613V47.4328L45.1699 41.5663V30.0278L51.035 26.5524ZM35.3298 17.405L41.195 20.8526V27.5811L31.3827 33.4476V45.1529L25.6843 48.6005L20.0137 45.1529V33.4198L9.84009 27.5533V20.8248L15.7052 17.3772L25.5175 23.2437L35.3298 17.405ZM9.84009 32.3911L15.5385 35.8387V42.5672L9.84009 39.1195V32.3911ZM41.195 32.3911V39.1195L35.4966 42.5672V35.8387L41.195 32.3911ZM5.69836 11.5385L11.5635 14.9861L5.69836 18.4337V25.1622L0 21.7146V14.9861L5.69836 11.5385ZM45.3367 11.5385L51.2018 14.9861V21.7146L45.3367 25.1622V18.4337L39.6383 14.9861L45.3367 11.5385ZM25.5175 11.5385L31.3827 14.9861L25.5175 18.4337L19.8192 14.9861L25.5175 11.5385ZM25.5175 0L41.195 9.14736L35.4966 12.595L25.6843 6.72845L15.6774 12.595L9.97908 9.14736L25.5175 0Z" fill="#F3BA2F"/>
</svg>
