<svg width="58" height="40" viewBox="0 0 58 40" fill="none" xmlns="http://www.w3.org/2000/svg">
<rect x="0.5" y="0.5" width="56.7778" height="39" rx="3.5" stroke="#45108A"/>
<path fill-rule="evenodd" clip-rule="evenodd" d="M11.8216 30.0245V21.7899H21.1095L22.106 23.0094L23.1355 21.7899H56.8484V29.4566C56.8484 29.4566 55.9668 30.0162 54.9471 30.0245H36.2795L35.156 28.7264V30.0245H31.4744V27.8086C31.4744 27.8086 30.9715 28.118 29.8842 28.118H28.631V30.0245H23.0567L22.0616 28.7789L21.0513 30.0245H11.8216ZM1 15.5837L3.08972 11H6.70366L7.8896 13.5676V11H12.3821L13.0881 12.8558L13.7725 11H33.939V11.933C33.939 11.933 34.9992 11 36.7414 11L43.2847 11.0215L44.4502 13.5555V11H48.2097L49.2445 12.4556V11H53.0385V19.2345H49.2445L48.2528 17.7742V19.2345H42.7293L42.1738 17.9365H40.6889L40.1424 19.2345H36.3965C34.8974 19.2345 33.939 18.3206 33.939 18.3206V19.2345H28.2911L27.1701 17.9365V19.2345H6.16828L5.61319 17.9365H4.133L3.58183 19.2345H1V15.5837ZM1.01094 18.1807L3.82951 12.015H5.96634L8.78222 18.1807H6.90677L6.3894 16.9461H3.36604L2.84597 18.1807H1.01094ZM5.79371 15.6074L4.87215 13.4499L3.9479 15.6074H5.79371ZM8.97607 18.18V12.0143L11.5838 12.0234L13.1005 15.9987L14.5809 12.0143H17.1677V18.18H15.5294V13.6368L13.7927 18.18H12.3559L10.6144 13.6368V18.18H8.97607ZM18.2887 18.18V12.0143H23.6348V13.3934H19.9442V14.4481H23.5486V15.7462H19.9442V16.8414H23.6348V18.18H18.2887ZM24.5833 18.1807V12.015H28.2291C29.4372 12.015 30.5195 12.7178 30.5195 14.0153C30.5195 15.1245 29.6069 15.8389 28.7222 15.9091L30.8779 18.1807H28.8758L26.9115 15.9903H26.2216V18.1807H24.5833ZM28.0944 13.394H26.2216V14.692H28.1186C28.447 14.692 28.8704 14.4526 28.8704 14.043C28.8704 13.7246 28.5436 13.394 28.0944 13.394ZM32.8612 18.18H31.1884V12.0143H32.8612V18.18ZM36.8276 18.18H36.4666C34.7195 18.18 33.6588 16.885 33.6588 15.1225C33.6588 13.3164 34.7076 12.0143 36.9139 12.0143H38.7247V13.4746H36.8477C35.9521 13.4746 35.3187 14.1322 35.3187 15.1377C35.3187 16.3318 36.0429 16.8333 37.0863 16.8333H37.5175L36.8276 18.18ZM37.5741 18.1807L40.3926 12.015H42.5295L45.3453 18.1807H43.4699L42.9525 16.9461H39.9292L39.4091 18.1807H37.5741ZM42.357 15.6074L41.4354 13.4499L40.5112 15.6074H42.357ZM45.5367 18.18V12.0143H47.6196L50.2792 15.8881V12.0143H51.9175V18.18H49.902L47.175 14.2047V18.18H45.5367ZM12.9426 28.9698V22.8041H18.2887V24.1832H14.5981V25.2379H18.2025V26.536H14.5981V27.6312H18.2887V28.9698H12.9426ZM39.1386 28.9698V22.8041H44.4847V24.1832H40.7941V25.2379H44.3812V26.536H40.7941V27.6312H44.4847V28.9698H39.1386ZM18.4962 28.9698L21.0992 25.925L18.4342 22.8041H20.4983L22.0854 24.7334L23.6779 22.8041H25.6611L23.0312 25.8869L25.639 28.9698H23.5752L22.0342 27.0709L20.5306 28.9698H18.4962ZM25.8336 28.9711V22.8053H29.4525C30.9374 22.8053 31.8049 23.7058 31.8049 24.8792C31.8049 26.2956 30.6988 27.024 29.2396 27.024H27.515V28.9711H25.8336ZM29.3312 24.1998H27.515V25.6195H29.3258C29.8043 25.6195 30.1396 25.3211 30.1396 24.9096C30.1396 24.4716 29.8026 24.1998 29.3312 24.1998ZM32.5163 28.9698V22.8041H36.1621C37.3701 22.8041 38.4525 23.5069 38.4525 24.8044C38.4525 25.9135 37.5399 26.628 36.6552 26.6982L38.8109 28.9698H36.8088L34.8444 26.7793H34.1546V28.9698H32.5163ZM36.0274 24.1831H34.1546V25.4811H36.0516C36.38 25.4811 36.8034 25.2417 36.8034 24.8321C36.8034 24.5137 36.4766 24.1831 36.0274 24.1831ZM45.2435 28.9698V27.6312H48.5223C49.0075 27.6312 49.2175 27.3845 49.2175 27.114C49.2175 26.8548 49.0081 26.5927 48.5223 26.5927H47.0407C45.7527 26.5927 45.0355 25.8545 45.0355 24.7461C45.0355 23.7574 45.6923 22.8041 47.6061 22.8041H50.7966L50.1068 24.1913H47.3475C46.82 24.1913 46.6576 24.4518 46.6576 24.7004C46.6576 24.956 46.8583 25.2379 47.2612 25.2379H48.8133C50.249 25.2379 50.872 26.0041 50.872 27.0075C50.872 28.0863 50.1778 28.9698 48.7352 28.9698H45.2435ZM51.0165 28.9698V27.6312H54.2953C54.7804 27.6312 54.9905 27.3845 54.9905 27.114C54.9905 26.8548 54.7811 26.5927 54.2953 26.5927H52.8136C51.5257 26.5927 50.8084 25.8545 50.8084 24.7461C50.8084 23.7574 51.4653 22.8041 53.3791 22.8041H56.5695L55.8797 24.1913H53.1204C52.593 24.1913 52.4306 24.4518 52.4306 24.7004C52.4306 24.956 52.6312 25.2379 53.0342 25.2379H54.5863C56.022 25.2379 56.645 26.0041 56.645 27.0075C56.645 28.0863 55.9508 28.9698 54.5081 28.9698H51.0165Z" fill="#45108A"/>
</svg>
