<svg width="20" height="24" viewBox="0 0 20 24" fill="none" xmlns="http://www.w3.org/2000/svg">
<path d="M17.6832 23.5222C17.3632 23.4613 17.0941 23.3039 16.8605 23.0398C16.4847 22.6132 16.5 22.796 16.5 18.1191C16.5 15.5648 16.4796 13.7925 16.4492 13.5335C16.1699 11.3195 14.5652 9.37456 12.4375 8.68393C11.6097 8.41479 11.3253 8.39448 8.32925 8.39448H5.55659L6.91245 9.75542C7.79605 10.6441 8.30386 11.1874 8.37495 11.3398C8.65425 11.8933 8.54253 12.5484 8.10073 12.9953C7.65386 13.4371 6.99878 13.5488 6.44527 13.2695C6.28276 13.1933 5.40933 12.3554 3.54058 10.4867C0.564796 7.51089 0.63589 7.59722 0.63589 6.94722C0.63589 6.29722 0.564796 6.38354 3.56597 3.38237C6.56714 0.3812 6.48081 0.452294 7.13081 0.452294C7.95855 0.452294 8.54761 1.04136 8.54761 1.86909C8.54761 2.47847 8.49683 2.55464 6.94292 4.10854L5.56675 5.48979L8.63394 5.51518C11.9449 5.54058 11.9347 5.54058 12.996 5.83511C15.4843 6.53589 17.5867 8.36401 18.6378 10.7507C18.8816 11.2992 19.1507 12.1675 19.2726 12.8124C19.3539 13.2492 19.364 13.7062 19.3843 17.7839C19.3996 21.9023 19.3945 22.2933 19.3132 22.5472C19.1 23.2175 18.3687 23.6593 17.6832 23.5222Z" fill="white"/>
</svg>
