<svg width="20" height="24" viewBox="0 0 20 24" fill="none" xmlns="http://www.w3.org/2000/svg">
<path d="M2.31684 23.5222C2.63677 23.4613 2.90591 23.3039 3.1395 23.0398C3.51528 22.6132 3.50005 22.796 3.50005 18.1191C3.50005 15.5648 3.52036 13.7925 3.55083 13.5335C3.83013 11.3195 5.43481 9.37456 7.56255 8.68393C8.39028 8.41479 8.67466 8.39448 11.6708 8.39448H14.4434L13.0875 9.75542C12.204 10.6441 11.6961 11.1874 11.625 11.3398C11.3458 11.8933 11.4575 12.5484 11.8993 12.9953C12.3461 13.4371 13.0012 13.5488 13.5547 13.2695C13.7172 13.1933 14.5907 12.3554 16.4594 10.4867C19.4352 7.51089 19.3641 7.59722 19.3641 6.94722C19.3641 6.29722 19.4352 6.38354 16.434 3.38237C13.4329 0.3812 13.5192 0.452294 12.8692 0.452294C12.0415 0.452294 11.4524 1.04136 11.4524 1.86909C11.4524 2.47847 11.5032 2.55464 13.0571 4.10854L14.4333 5.48979L11.3661 5.51518C8.05513 5.54058 8.06528 5.54058 7.00395 5.83511C4.51567 6.53589 2.41333 8.36401 1.36216 10.7507C1.11841 11.2992 0.849268 12.1675 0.727392 12.8124C0.646143 13.2492 0.635986 13.7062 0.615673 17.7839C0.600439 21.9023 0.605516 22.2933 0.686768 22.5472C0.900049 23.2175 1.6313 23.6593 2.31684 23.5222Z" fill="white"/>
</svg>
