<svg width="44" height="53" viewBox="0 0 44 53" fill="none" xmlns="http://www.w3.org/2000/svg">
<path d="M26.9104 43.624V49.3936L21.8811 52.3499L16.9948 49.3936V43.624L21.8811 46.5803L26.9104 43.624ZM0 23.6688L4.88629 26.6251V36.5193L13.3003 41.5498V47.3194L0 39.4756V23.6688ZM43.7621 23.6688V39.4994L30.3189 47.3432V41.5736L38.7328 36.5431V26.649L43.7621 23.6688ZM30.295 15.825L35.3243 18.7814V24.5509L26.9104 29.5815V39.6186L22.0241 42.575L17.1616 39.6186V29.5576L8.4378 24.5271V18.7575L13.4671 15.8012L21.8811 20.8317L30.295 15.825ZM8.4378 28.6755L13.3241 31.6318V37.4014L8.4378 34.4451V28.6755ZM35.3243 28.6755V34.4451L30.438 37.4014V31.6318L35.3243 28.6755ZM4.88629 10.7945L9.9156 13.7508L4.88629 16.7072V22.4768L0 19.5204V13.7508L4.88629 10.7945ZM38.8758 10.7945L43.9051 13.7508V19.5204L38.8758 22.4768V16.7072L33.9895 13.7508L38.8758 10.7945ZM21.8811 10.7945L26.9104 13.7508L21.8811 16.7072L16.9948 13.7508L21.8811 10.7945ZM21.8811 0.900391L35.3243 8.74417L30.438 11.7005L22.0241 6.66998L13.4433 11.7005L8.55697 8.74417L21.8811 0.900391Z" fill="#45108A"/>
</svg>
