<svg width="20" height="26" viewBox="0 0 20 26" fill="none" xmlns="http://www.w3.org/2000/svg">
<path d="M-410.746 10.4597C-410.752 10.0852 -410.751 9.71439 -410.746 9.34741V10.4597C-410.331 36.5738 -380.73 80.2245 -264.036 54.0846C-116.077 20.9413 -9.16803 35.9377 132.009 85.9678C244.95 125.992 69.6007 145.407 -32.1918 150.112L-410.746 131.083V10.4597Z" fill="#29023E"/>
<path fill-rule="evenodd" clip-rule="evenodd" d="M1.00016 6.79167C1.00016 6.35444 1.3546 6 1.79183 6H17.6252C18.0624 6 18.4168 6.35444 18.4168 6.79167C18.4168 7.22889 18.0624 7.58333 17.6252 7.58333H1.79183C1.3546 7.58333 1.00016 7.22889 1.00016 6.79167ZM1.00033 19.125C1.00033 18.6878 1.35477 18.3333 1.79199 18.3333H13.667C14.1042 18.3333 14.4587 18.6878 14.4587 19.125C14.4587 19.5622 14.1042 19.9167 13.667 19.9167H1.79199C1.35477 19.9167 1.00033 19.5622 1.00033 19.125ZM1.79167 12.3333C1.35444 12.3333 1 12.6878 1 13.125C1 13.5622 1.35444 13.9167 1.79167 13.9167H13.6667C14.1039 13.9167 14.4583 13.5622 14.4583 13.125C14.4583 12.6878 14.1039 12.3333 13.6667 12.3333H1.79167Z" fill="white"/>
</svg>
