<svg width="157" height="31" viewBox="0 0 157 31" fill="none" xmlns="http://www.w3.org/2000/svg">
<path d="M7.04903 21.3036C5.91387 21.3036 4.69213 21.1497 3.38381 20.8418C2.09473 20.534 1.08463 20.1973 0.353516 19.8317L0.786415 15.9068C3.32609 17.1381 5.55793 17.7538 7.48193 17.7538C8.50165 17.7538 9.3001 17.5614 9.8773 17.1766C10.4545 16.7726 10.7431 16.1857 10.7431 15.4161C10.7431 14.8389 10.5796 14.3676 10.2525 14.002C9.94464 13.6172 9.4925 13.2997 8.89606 13.0496C8.29963 12.7803 7.34725 12.4147 6.03893 11.9529C4.80757 11.5297 3.78785 11.0871 2.97977 10.6254C2.17169 10.1444 1.52715 9.53833 1.04615 8.80721C0.584395 8.05685 0.353516 7.14295 0.353516 6.06551C0.353516 4.33391 0.988435 2.93901 2.25827 1.88082C3.52811 0.822618 5.34629 0.293518 7.71281 0.293518C8.82872 0.293518 9.93502 0.418578 11.0317 0.668698C12.1476 0.918818 13.1673 1.22666 14.0909 1.59222L13.7157 5.37287C12.5228 4.85339 11.4261 4.46859 10.4256 4.21847C9.4444 3.94911 8.46317 3.81443 7.48193 3.81443C6.38525 3.81443 5.54831 3.99721 4.97111 4.36277C4.39391 4.72833 4.10531 5.25743 4.10531 5.95007C4.10531 6.48879 4.25923 6.93131 4.56707 7.27763C4.87491 7.62395 5.28857 7.91255 5.80805 8.14343C6.34677 8.37431 7.13561 8.65329 8.17457 8.98037C10.5026 9.71149 12.1957 10.558 13.2539 11.52C14.3314 12.4628 14.8701 13.7615 14.8701 15.4161C14.8701 16.9938 14.3217 18.3695 13.2251 19.5431C12.1284 20.7168 10.0697 21.3036 7.04903 21.3036Z" fill="#F2F2F2"/>
<path d="M34.6414 20.8995L32.9098 7.36421L27.7439 16.6571L22.5491 7.39307L20.8175 20.8995H16.9791L19.7785 0.697557H22.8088L27.7439 9.90389L32.6501 0.697557H35.6804L38.4798 20.8995H34.6414Z" fill="#F2F2F2"/>
<path d="M52.4482 16.1088H45.0889L43.4151 20.8995H39.8364L47.0225 0.697557H50.5146L57.7007 20.8995H54.1221L52.4482 16.1088ZM51.2938 12.8765L48.783 5.66147L46.2433 12.8765H51.2938Z" fill="#F2F2F2"/>
<path d="M60.0095 0.697557H67.3977C69.5526 0.697557 71.2457 1.21704 72.477 2.256C73.7276 3.27571 74.3529 4.79567 74.3529 6.81587C74.3529 8.22039 74.0547 9.37479 73.4583 10.2791C72.8618 11.1641 72.0153 11.876 70.9186 12.4147L75.4785 20.8995H71.3515L67.4554 13.3959H67.3111H63.7036V20.8995H60.0095V0.697557ZM66.4164 10.3079C69.1293 10.3079 70.4857 9.21125 70.4857 7.01789C70.4857 5.95969 70.1779 5.16123 69.5622 4.62251C68.9465 4.06455 67.946 3.78557 66.5607 3.78557H63.7036V10.3079H66.4164Z" fill="#F2F2F2"/>
<path d="M81.8029 4.27619H76.0886V0.697557H91.2112V4.27619H85.4969V20.8995H81.8029V4.27619Z" fill="#F2F2F2"/>
<path d="M102.64 21.3036C100.601 21.3036 98.7922 20.8707 97.2145 20.0049C95.6561 19.1391 94.444 17.9173 93.5782 16.3397C92.7124 14.7427 92.2795 12.8957 92.2795 10.7985C92.2795 8.72063 92.722 6.89283 93.607 5.31515C94.5113 3.71823 95.7523 2.48688 97.33 1.62108C98.9269 0.736037 100.735 0.293518 102.756 0.293518C104.699 0.293518 106.44 0.687937 107.979 1.47678L107.575 4.99769C106.748 4.63213 105.949 4.35315 105.18 4.16075C104.43 3.94911 103.612 3.84329 102.727 3.84329C100.668 3.84329 99.0808 4.47821 97.9649 5.74805C96.8682 7.01789 96.3199 8.70139 96.3199 10.7985C96.3199 12.8957 96.8586 14.5792 97.936 15.849C99.0327 17.1189 100.601 17.7538 102.64 17.7538C103.544 17.7538 104.372 17.6576 105.122 17.4652C105.892 17.2728 106.709 16.9842 107.575 16.5994L107.979 20.1203C106.305 20.9092 104.526 21.3036 102.64 21.3036Z" fill="#F2F2F2"/>
<path d="M119.569 21.3036C117.664 21.3036 115.952 20.8707 114.432 20.0049C112.931 19.1198 111.748 17.8885 110.882 16.3108C110.036 14.7139 109.612 12.8765 109.612 10.7985C109.612 8.72063 110.036 6.89283 110.882 5.31515C111.748 3.71823 112.931 2.48688 114.432 1.62108C115.952 0.736037 117.664 0.293518 119.569 0.293518C121.474 0.293518 123.177 0.736037 124.677 1.62108C126.197 2.48688 127.38 3.71823 128.227 5.31515C129.093 6.89283 129.526 8.72063 129.526 10.7985C129.526 12.8765 129.093 14.7139 128.227 16.3108C127.38 17.8885 126.197 19.1198 124.677 20.0049C123.177 20.8707 121.474 21.3036 119.569 21.3036ZM119.569 17.7249C121.532 17.7249 123.032 17.09 124.071 15.8202C125.129 14.5503 125.659 12.8765 125.659 10.7985C125.659 8.72063 125.129 7.04675 124.071 5.77691C123.032 4.50707 121.532 3.87215 119.569 3.87215C117.607 3.87215 116.096 4.50707 115.038 5.77691C113.999 7.04675 113.48 8.72063 113.48 10.7985C113.48 12.8765 113.999 14.5503 115.038 15.8202C116.096 17.09 117.607 17.7249 119.569 17.7249Z" fill="#F2F2F2"/>
<path d="M132.751 0.697557H136.445V20.8995H132.751V0.697557Z" fill="#F2F2F2"/>
<path d="M140.896 0.697557H144.533L153.162 13.7423V0.697557H156.856V20.8995H153.826L144.59 7.04675V20.8995H140.896V0.697557Z" fill="#F2F2F2"/>
<path d="M4.51902 27.0451C5.3784 27.2952 5.8081 27.882 5.8081 28.8055C5.8081 29.402 5.61249 29.8701 5.22128 30.21C4.83648 30.5499 4.30738 30.7199 3.63398 30.7199H0.921143V23.9859H3.3069C3.94182 23.9859 4.42282 24.1238 4.7499 24.3996C5.07698 24.6753 5.24052 25.0826 5.24052 25.6213C5.24052 25.9484 5.17959 26.2338 5.05774 26.4775C4.93588 26.7148 4.75631 26.904 4.51902 27.0451ZM2.03706 26.6891H3.15298C3.47365 26.6891 3.71415 26.625 3.87448 26.4967C4.04123 26.362 4.1246 26.1408 4.1246 25.8329C4.1246 25.5251 4.04123 25.3071 3.87448 25.1788C3.71415 25.0441 3.47365 24.9768 3.15298 24.9768H2.03706V26.6891ZM3.48968 29.7194C4.25287 29.7194 4.63446 29.3827 4.63446 28.7093C4.63446 28.3438 4.53184 28.084 4.32662 27.9301C4.12781 27.7698 3.84883 27.6896 3.48968 27.6896H2.03706V29.7194H3.48968Z" fill="white"/>
<path d="M6.83969 23.9859H7.95561V29.7194H10.8416V30.7199H6.83969V23.9859Z" fill="white"/>
<path d="M14.4145 30.8546C13.7731 30.8546 13.2023 30.7103 12.7021 30.4217C12.2019 30.1331 11.8074 29.7258 11.5188 29.1999C11.2367 28.6676 11.0956 28.052 11.0956 27.3529C11.0956 26.6538 11.2367 26.0414 11.5188 25.5155C11.8074 24.9832 12.2019 24.5727 12.7021 24.2841C13.2023 23.9955 13.7731 23.8512 14.4145 23.8512C15.0558 23.8512 15.6266 23.9955 16.1268 24.2841C16.627 24.5727 17.0183 24.9832 17.3004 25.5155C17.589 26.0414 17.7333 26.6538 17.7333 27.3529C17.7333 28.052 17.589 28.6676 17.3004 29.1999C17.0183 29.7258 16.627 30.1331 16.1268 30.4217C15.6266 30.7103 15.0558 30.8546 14.4145 30.8546ZM14.4145 29.7771C15.1007 29.7771 15.6266 29.5527 15.9921 29.1037C16.3641 28.6548 16.5501 28.0712 16.5501 27.3529C16.5501 26.6346 16.3641 26.051 15.9921 25.6021C15.6266 25.1531 15.1007 24.9287 14.4145 24.9287C13.7282 24.9287 13.1991 25.1531 12.8272 25.6021C12.4552 26.051 12.2692 26.6346 12.2692 27.3529C12.2692 28.0712 12.4552 28.6548 12.8272 29.1037C13.1991 29.5527 13.7282 29.7771 14.4145 29.7771Z" fill="white"/>
<path d="M21.8668 30.8546C21.1998 30.8546 20.6066 30.7103 20.0871 30.4217C19.5676 30.1331 19.1604 29.7258 18.8653 29.1999C18.5767 28.6676 18.4324 28.052 18.4324 27.3529C18.4324 26.6538 18.58 26.0414 18.875 25.5155C19.1764 24.9832 19.5901 24.5727 20.1159 24.2841C20.6418 23.9955 21.2383 23.8512 21.9053 23.8512C22.2388 23.8512 22.5562 23.8865 22.8576 23.957C23.1591 24.0276 23.4284 24.1238 23.6657 24.2456L23.5503 25.3038C22.9923 25.0409 22.4408 24.9094 21.8956 24.9094C21.4211 24.9094 21.0138 25.0152 20.6739 25.2269C20.3404 25.4321 20.0871 25.7207 19.9139 26.0927C19.7408 26.4582 19.6542 26.8783 19.6542 27.3529C19.6542 27.8275 19.7376 28.2508 19.9043 28.6227C20.0775 28.9883 20.3308 29.2769 20.6643 29.4885C20.9978 29.6938 21.4018 29.7964 21.8764 29.7964C22.1778 29.7964 22.46 29.7643 22.723 29.7002C22.9923 29.636 23.2681 29.5398 23.5503 29.4116L23.6657 30.4602C23.127 30.7231 22.5274 30.8546 21.8668 30.8546Z" fill="white"/>
<path d="M24.7269 23.9859H25.8428V30.7199H24.7269V23.9859ZM25.939 27.1605L28.4305 23.9859H29.7485L27.228 27.1509L29.7581 30.7199H28.4305L25.939 27.1605Z" fill="white"/>
<path d="M33.3187 30.8546C32.6517 30.8546 32.0585 30.7103 31.539 30.4217C31.0195 30.1331 30.6123 29.7258 30.3173 29.1999C30.0287 28.6676 29.8844 28.052 29.8844 27.3529C29.8844 26.6538 30.0319 26.0414 30.3269 25.5155C30.6283 24.9832 31.042 24.5727 31.5679 24.2841C32.0938 23.9955 32.6902 23.8512 33.3572 23.8512C33.6907 23.8512 34.0081 23.8865 34.3096 23.957C34.611 24.0276 34.8803 24.1238 35.1176 24.2456L35.0022 25.3038C34.4442 25.0409 33.8927 24.9094 33.3476 24.9094C32.873 24.9094 32.4657 25.0152 32.1258 25.2269C31.7923 25.4321 31.539 25.7207 31.3658 26.0927C31.1927 26.4582 31.1061 26.8783 31.1061 27.3529C31.1061 27.8275 31.1895 28.2508 31.3562 28.6227C31.5294 28.9883 31.7827 29.2769 32.1162 29.4885C32.4497 29.6938 32.8537 29.7964 33.3283 29.7964C33.6297 29.7964 33.9119 29.7643 34.1749 29.7002C34.4442 29.636 34.72 29.5398 35.0022 29.4116L35.1176 30.4602C34.5789 30.7231 33.9793 30.8546 33.3187 30.8546Z" fill="white"/>
<path d="M36.1788 23.9859H37.2947V26.6891H40.4981V23.9859H41.6141V30.7199H40.4981V27.7377H37.2947V30.7199H36.1788V23.9859Z" fill="white"/>
<path d="M46.604 29.046H44.1028L43.516 30.7199H42.4L44.805 23.9859H45.9017L48.2971 30.7199H47.1908L46.604 29.046ZM46.248 28.0552L45.3534 25.4962L44.4491 28.0552H46.248Z" fill="white"/>
<path d="M49.0962 23.9859H50.2122V30.7199H49.0962V23.9859Z" fill="white"/>
<path d="M51.7173 23.9859H52.8525L55.8828 28.5843V23.9859H57.0083V30.7199H56.0848L52.8332 25.8426V30.7199H51.7173V23.9859Z" fill="white"/>
<path d="M61.9882 25.0441H60.0642V23.9859H65.0281V25.0441H63.1041V30.7199H61.9882V25.0441Z" fill="white"/>
<path d="M68.6866 30.8546C68.0453 30.8546 67.4745 30.7103 66.9742 30.4217C66.474 30.1331 66.0796 29.7258 65.791 29.1999C65.5088 28.6676 65.3677 28.052 65.3677 27.3529C65.3677 26.6538 65.5088 26.0414 65.791 25.5155C66.0796 24.9832 66.474 24.5727 66.9742 24.2841C67.4745 23.9955 68.0453 23.8512 68.6866 23.8512C69.3279 23.8512 69.8987 23.9955 70.3989 24.2841C70.8992 24.5727 71.2904 24.9832 71.5726 25.5155C71.8612 26.0414 72.0055 26.6538 72.0055 27.3529C72.0055 28.052 71.8612 28.6676 71.5726 29.1999C71.2904 29.7258 70.8992 30.1331 70.3989 30.4217C69.8987 30.7103 69.3279 30.8546 68.6866 30.8546ZM68.6866 29.7771C69.3728 29.7771 69.8987 29.5527 70.2643 29.1037C70.6362 28.6548 70.8222 28.0712 70.8222 27.3529C70.8222 26.6346 70.6362 26.051 70.2643 25.6021C69.8987 25.1531 69.3728 24.9287 68.6866 24.9287C68.0004 24.9287 67.4713 25.1531 67.0993 25.6021C66.7273 26.051 66.5413 26.6346 66.5413 27.3529C66.5413 28.0712 66.7273 28.6548 67.0993 29.1037C67.4713 29.5527 68.0004 29.7771 68.6866 29.7771Z" fill="white"/>
<path d="M76.0331 30.8546C75.3918 30.8546 74.821 30.7103 74.3207 30.4217C73.8205 30.1331 73.4261 29.7258 73.1375 29.1999C72.8553 28.6676 72.7142 28.052 72.7142 27.3529C72.7142 26.6538 72.8553 26.0414 73.1375 25.5155C73.4261 24.9832 73.8205 24.5727 74.3207 24.2841C74.821 23.9955 75.3918 23.8512 76.0331 23.8512C76.6744 23.8512 77.2452 23.9955 77.7455 24.2841C78.2457 24.5727 78.6369 24.9832 78.9191 25.5155C79.2077 26.0414 79.352 26.6538 79.352 27.3529C79.352 28.052 79.2077 28.6676 78.9191 29.1999C78.6369 29.7258 78.2457 30.1331 77.7455 30.4217C77.2452 30.7103 76.6744 30.8546 76.0331 30.8546ZM76.0331 29.7771C76.7193 29.7771 77.2452 29.5527 77.6108 29.1037C77.9828 28.6548 78.1687 28.0712 78.1687 27.3529C78.1687 26.6346 77.9828 26.051 77.6108 25.6021C77.2452 25.1531 76.7193 24.9287 76.0331 24.9287C75.3469 24.9287 74.8178 25.1531 74.4458 25.6021C74.0738 26.051 73.8878 26.6346 73.8878 27.3529C73.8878 28.0712 74.0738 28.6548 74.4458 29.1037C74.8178 29.5527 75.3469 29.7771 76.0331 29.7771Z" fill="white"/>
<path d="M80.4551 23.9859H81.5711V29.7194H84.4571V30.7199H80.4551V23.9859Z" fill="white"/>
</svg>
