<svg width="57" height="40" viewBox="0 0 57 40" fill="none" xmlns="http://www.w3.org/2000/svg">
<rect x="0.527832" y="0.5" width="55.8889" height="39" rx="3.5" stroke="#45108A"/>
<path fill-rule="evenodd" clip-rule="evenodd" d="M20.8697 30.89V32.3668V33.8437H20.2348V33.4851C20.0334 33.751 19.7279 33.918 19.3125 33.918C18.4937 33.918 17.8519 33.2694 17.8519 32.3668C17.8519 31.465 18.4937 30.8157 19.3125 30.8157C19.7279 30.8157 20.0334 30.9826 20.2348 31.2486V30.89H20.8697ZM19.3915 31.4211C18.8419 31.4211 18.5056 31.8477 18.5056 32.3668C18.5056 32.886 18.8419 33.3125 19.3915 33.3125C19.9166 33.3125 20.2711 32.9044 20.2711 32.3668C20.2711 31.8293 19.9166 31.4211 19.3915 31.4211ZM42.3245 32.3668C42.3245 31.8477 42.6609 31.4211 43.2104 31.4211C43.7363 31.4211 44.0901 31.8293 44.0901 32.3668C44.0901 32.9044 43.7363 33.3125 43.2104 33.3125C42.6609 33.3125 42.3245 32.886 42.3245 32.3668ZM44.6893 29.7038V32.3668V33.8437H44.0537V33.4851C43.8523 33.751 43.5468 33.918 43.1314 33.918C42.3127 33.918 41.6708 33.2694 41.6708 32.3668C41.6708 31.465 42.3127 30.8157 43.1314 30.8157C43.5468 30.8157 43.8523 30.9826 44.0537 31.2486V29.7038H44.6893ZM28.7506 31.3906C29.1596 31.3906 29.4225 31.6502 29.4897 32.1071H27.9745C28.0423 31.6806 28.2982 31.3906 28.7506 31.3906ZM27.3088 32.3668C27.3088 31.4459 27.9073 30.8157 28.7632 30.8157C29.5812 30.8157 30.1434 31.4459 30.1497 32.3668C30.1497 32.4531 30.1434 32.5338 30.1371 32.6137H27.9688C28.0604 33.1456 28.4331 33.3373 28.8422 33.3373C29.1351 33.3373 29.447 33.2255 29.6917 33.0282L30.0029 33.5042C29.6484 33.8069 29.2456 33.918 28.8058 33.918C27.9318 33.918 27.3088 33.3061 27.3088 32.3668ZM36.4294 32.3668C36.4294 31.8477 36.7657 31.4211 37.3153 31.4211C37.8404 31.4211 38.195 31.8293 38.195 32.3668C38.195 32.9044 37.8404 33.3125 37.3153 33.3125C36.7657 33.3125 36.4294 32.886 36.4294 32.3668ZM38.7935 30.89V32.3668V33.8437H38.1586V33.4851C37.9565 33.751 37.6517 33.918 37.2363 33.918C36.4175 33.918 35.7756 33.2694 35.7756 32.3668C35.7756 31.465 36.4175 30.8157 37.2363 30.8157C37.6517 30.8157 37.9565 30.9826 38.1586 31.2486V30.89H38.7935ZM32.8438 32.3668C32.8438 33.263 33.4605 33.918 34.4017 33.918C34.8415 33.918 35.1344 33.8189 35.4519 33.5657L35.147 33.0466C34.9086 33.2199 34.6583 33.3125 34.3828 33.3125C33.8758 33.3061 33.5032 32.9355 33.5032 32.3668C33.5032 31.7981 33.8758 31.4275 34.3828 31.4212C34.6583 31.4212 34.9086 31.5138 35.147 31.6871L35.4519 31.1679C35.1344 30.9147 34.8415 30.8157 34.4017 30.8157C33.4605 30.8157 32.8438 31.4707 32.8438 32.3668ZM40.2596 31.2485C40.4247 30.9889 40.6631 30.8156 41.0295 30.8156C41.1581 30.8156 41.3413 30.8404 41.4819 30.8963L41.2861 31.5017C41.1518 31.4458 41.0176 31.4275 40.8889 31.4275C40.4736 31.4275 40.2659 31.6991 40.2659 32.1878V33.8436H39.6303V30.8899H40.2596V31.2485ZM24.0098 31.1248C23.7043 30.9211 23.2833 30.8157 22.8191 30.8157C22.0793 30.8157 21.6031 31.1743 21.6031 31.7614C21.6031 32.243 21.9576 32.5401 22.6107 32.6328L22.9107 32.6759C23.2589 32.7254 23.4232 32.8181 23.4232 32.985C23.4232 33.2135 23.191 33.3436 22.7575 33.3436C22.3177 33.3436 22.0003 33.2015 21.7863 33.0345L21.487 33.5346C21.8353 33.7942 22.2751 33.918 22.7512 33.918C23.5945 33.918 24.0832 33.5162 24.0832 32.9539C24.0832 32.4347 23.6987 32.1631 23.0631 32.0705L22.7638 32.0266C22.489 31.9898 22.2688 31.9347 22.2688 31.7366C22.2688 31.5202 22.4764 31.3907 22.8246 31.3907C23.1973 31.3907 23.5581 31.5329 23.735 31.644L24.0098 31.1248ZM31.4328 31.2485C31.5971 30.9889 31.8355 30.8156 32.2019 30.8156C32.3306 30.8156 32.5138 30.8404 32.6543 30.8963L32.4585 31.5017C32.3243 31.4458 32.19 31.4275 32.0614 31.4275C31.646 31.4275 31.4384 31.6991 31.4384 32.1878V33.8436H30.8035V30.8899H31.4328V31.2485ZM26.7836 30.89H25.7452V29.9938H25.1034V30.89H24.5111V31.477H25.1034V32.8245C25.1034 33.5098 25.3663 33.918 26.1172 33.918C26.3927 33.918 26.7102 33.8317 26.9115 33.6895L26.7283 33.1392C26.5389 33.2503 26.3312 33.3061 26.1662 33.3061C25.8487 33.3061 25.7452 33.1081 25.7452 32.8117V31.477H26.7836V30.89ZM17.2903 31.9898V33.8436H16.6485V32.1998C16.6485 31.6991 16.4408 31.4211 16.0073 31.4211C15.5857 31.4211 15.2927 31.6934 15.2927 32.2062V33.8436H14.6508V32.1998C14.6508 31.6991 14.4375 31.4211 14.0159 31.4211C13.5817 31.4211 13.3006 31.6934 13.3006 32.2062V33.8436H12.6594V30.8899H13.295V31.2542C13.5334 30.9083 13.8383 30.8156 14.1502 30.8156C14.5963 30.8156 14.9137 31.0137 15.1151 31.3412C15.3843 30.9267 15.7688 30.8093 16.1415 30.8156C16.8505 30.822 17.2903 31.2916 17.2903 31.9898Z" fill="#45108A"/>
<path opacity="0.6" d="M46.4038 16.1247C46.4038 22.2691 41.4806 27.25 35.4072 27.25C32.8418 27.25 30.4812 26.3609 28.6101 24.8713C31.1685 22.8342 32.811 19.6733 32.811 16.1247C32.811 12.5761 31.1685 9.41512 28.6101 7.37806C30.4812 5.88846 32.8418 4.99937 35.4072 4.99937C41.4806 4.99937 46.4038 9.98027 46.4038 16.1247Z" fill="#45108A"/>
<path d="M28.7924 7.37721C26.9221 5.88791 24.5618 4.99902 21.9966 4.99902C15.9232 4.99902 11 9.97991 11 16.1243C11 22.2688 15.9232 27.2496 21.9966 27.2496C24.562 27.2496 26.9226 26.3606 28.793 24.871C28.7932 24.8711 28.7928 24.8708 28.793 24.871C31.3511 22.8339 32.9939 19.6726 32.9939 16.1243C32.9939 12.5758 31.3508 9.41427 28.7924 7.37721C28.7924 7.37722 28.7924 7.37721 28.7924 7.37721Z" fill="#45108A"/>
</svg>

