<svg width="58" height="40" viewBox="0 0 58 40" fill="none" xmlns="http://www.w3.org/2000/svg">
<rect x="0.666748" y="0.5" width="55.8889" height="39" rx="3.5" stroke="#45108A"/>
<path fill-rule="evenodd" clip-rule="evenodd" d="M26.099 20.2557L26.3466 18.6472L25.7949 18.6341H23.1604L24.9913 6.76456C24.997 6.72862 25.0154 6.69526 25.0424 6.67152C25.0694 6.64779 25.1039 6.63477 25.14 6.63477H29.5822C31.057 6.63477 32.0748 6.94848 32.606 7.56777C32.8552 7.8583 33.0138 8.16198 33.0906 8.49604C33.1711 8.84664 33.1725 9.26547 33.0939 9.7764L33.0882 9.81356V10.141L33.3374 10.2853C33.5471 10.3991 33.7138 10.5293 33.8417 10.6783C34.0548 10.9268 34.1926 11.2426 34.2508 11.6168C34.311 12.0017 34.2911 12.4599 34.1926 12.9785C34.0789 13.575 33.8952 14.0946 33.647 14.5197C33.4188 14.9114 33.128 15.2364 32.7827 15.4881C32.4531 15.7274 32.0615 15.909 31.6187 16.0252C31.1896 16.1394 30.7003 16.1971 30.1637 16.1971H29.818C29.5709 16.1971 29.3308 16.2881 29.1423 16.4512C28.9533 16.6178 28.8283 16.8454 28.79 17.0943L28.7638 17.2391L28.3262 20.0742L28.3065 20.1782C28.3011 20.2112 28.2921 20.2276 28.2789 20.2387C28.2671 20.2489 28.2501 20.2557 28.2335 20.2557H26.099Z" fill="#45108A"/>
<path fill-rule="evenodd" clip-rule="evenodd" d="M33.5733 9.85156C33.5602 9.93823 33.5449 10.0268 33.5279 10.1178C32.9421 13.1931 30.9379 14.2555 28.3782 14.2555H27.0748C26.7618 14.2555 26.4979 14.4879 26.4492 14.8036L25.593 20.357C25.5613 20.5644 25.7175 20.7512 25.9221 20.7512H28.2337C28.5074 20.7512 28.7399 20.5479 28.783 20.2719L28.8057 20.1518L29.241 17.3278L29.2689 17.173C29.3115 16.896 29.5446 16.6925 29.8183 16.6925H30.164C32.4036 16.6925 34.1568 15.7629 34.6693 13.0725C34.8833 11.9487 34.7725 11.0103 34.2061 10.3503C34.0347 10.1513 33.822 9.98611 33.5733 9.85156Z" fill="#45108A"/>
<path fill-rule="evenodd" clip-rule="evenodd" d="M32.9605 9.60169C32.871 9.57498 32.7787 9.55083 32.684 9.529C32.5887 9.5077 32.4912 9.48885 32.3908 9.4723C32.0394 9.41425 31.6543 9.38672 31.2419 9.38672H27.7601C27.6743 9.38672 27.5928 9.40652 27.52 9.44233C27.3594 9.52127 27.2401 9.6767 27.2112 9.86699L26.4704 14.6637L26.4492 14.8036C26.4979 14.4878 26.7618 14.2555 27.0748 14.2555H28.3781C30.9378 14.2555 32.9421 13.1925 33.5279 10.1178C33.5454 10.0268 33.5601 9.9382 33.5733 9.85153C33.4251 9.7711 33.2646 9.70233 33.0917 9.64374C33.049 9.62923 33.005 9.61526 32.9605 9.60169Z" fill="#45108A"/>
<path fill-rule="evenodd" clip-rule="evenodd" d="M27.2113 9.86762C27.2402 9.67733 27.3594 9.52189 27.5201 9.4435C27.5934 9.40755 27.6743 9.38775 27.7602 9.38775H31.2419C31.6544 9.38775 32.0395 9.41542 32.3909 9.47347C32.4913 9.48988 32.5888 9.50887 32.684 9.53016C32.7787 9.55187 32.8711 9.57614 32.9606 9.60273C33.0051 9.61629 33.0491 9.6304 33.0922 9.64437C33.2651 9.70296 33.4257 9.77227 33.5739 9.85215C33.7482 8.7157 33.5724 7.94192 32.9715 7.24125C32.3089 6.46978 31.1131 6.13965 29.583 6.13965H25.1407C24.8281 6.13965 24.5615 6.37199 24.5132 6.68828L22.6629 18.6799C22.6265 18.9171 22.8054 19.1311 23.0394 19.1311H25.7819L27.2113 9.86762Z" fill="#45108A"/>
<path fill-rule="evenodd" clip-rule="evenodd" d="M13.0104 23.5215H9.77157C9.5499 23.5215 9.3614 23.6861 9.32678 23.9099L8.01682 32.4015C7.99082 32.5692 8.11777 32.7201 8.28398 32.7201H9.8302C10.0519 32.7201 10.2404 32.5556 10.275 32.3314L10.6282 30.041C10.6623 29.8168 10.8512 29.6522 11.0725 29.6522H12.0978C14.2313 29.6522 15.4626 28.5965 15.7842 26.5048C15.9291 25.5896 15.7903 24.8706 15.3712 24.367C14.9109 23.814 14.0944 23.5215 13.0104 23.5215ZM13.3839 26.623C13.2068 27.8112 12.3188 27.8112 11.4603 27.8112H10.9715L11.3144 25.592C11.3348 25.4579 11.4484 25.3591 11.581 25.3591H11.8051C12.3899 25.3591 12.9417 25.3591 13.2267 25.7C13.3968 25.9033 13.4488 26.2055 13.3839 26.623Z" fill="#45108A"/>
<path fill-rule="evenodd" clip-rule="evenodd" d="M22.7748 26.5203H21.2238C21.0917 26.5203 20.9775 26.619 20.9572 26.7532L20.8885 27.1967L20.7801 27.036C20.4444 26.5376 19.6955 26.3711 18.9483 26.3711C17.2343 26.3711 15.7704 27.6984 15.4853 29.5602C15.3372 30.4889 15.5478 31.377 16.0632 31.9963C16.5358 32.5657 17.2121 32.803 18.0167 32.803C19.3977 32.803 20.1634 31.8951 20.1634 31.8951L20.0943 32.3358C20.0683 32.5042 20.1952 32.6553 20.3605 32.6553H21.7575C21.9797 32.6553 22.1673 32.4907 22.2023 32.2665L23.0405 26.8389C23.0671 26.6718 22.9405 26.5203 22.7748 26.5203ZM20.6128 29.6065C20.4632 30.5124 19.76 31.1205 18.863 31.1205C18.4126 31.1205 18.0527 30.9728 17.8215 30.693C17.5923 30.4151 17.5053 30.0195 17.5781 29.5788C17.7179 28.6807 18.4329 28.0525 19.3163 28.0525C19.7567 28.0525 20.1147 28.2023 20.3506 28.4844C20.5868 28.7696 20.6806 29.1677 20.6128 29.6065Z" fill="#45108A"/>
<path fill-rule="evenodd" clip-rule="evenodd" d="M30.9158 26.6553H29.3571C29.2084 26.6553 29.0687 26.7308 28.9845 26.8572L26.8349 30.0946L25.9236 26.9835C25.8663 26.7889 25.6907 26.6553 25.4917 26.6553H23.9602C23.774 26.6553 23.6448 26.8412 23.7039 27.0204L25.4208 32.1714L23.8068 34.501C23.6798 34.6845 23.8077 34.9368 24.027 34.9368H25.5837C25.7314 34.9368 25.8697 34.8632 25.9535 34.7393L31.1374 27.0886C31.2615 26.9056 31.134 26.6553 30.9158 26.6553Z" fill="#45108A"/>
<path fill-rule="evenodd" clip-rule="evenodd" d="M36.1116 23.5215H32.8724C32.6512 23.5215 32.4627 23.6861 32.4281 23.9099L31.1181 32.4015C31.0921 32.5692 31.2191 32.7201 31.3844 32.7201H33.0467C33.2009 32.7201 33.3331 32.605 33.3572 32.4481L33.729 30.041C33.7631 29.8168 33.9522 29.6522 34.1733 29.6522H35.1982C37.3321 29.6522 38.5629 28.5965 38.885 26.5048C39.0304 25.5896 38.8907 24.8706 38.4716 24.367C38.0116 23.814 37.1957 23.5215 36.1116 23.5215ZM36.4854 26.623C36.3087 27.8112 35.4207 27.8112 34.5616 27.8112H34.0735L34.4168 25.592C34.4371 25.4579 34.5498 25.3591 34.6829 25.3591H34.9069C35.4913 25.3591 36.0435 25.3591 36.3286 25.7C36.4986 25.9033 36.5502 26.2055 36.4854 26.623Z" fill="#45108A"/>
<path fill-rule="evenodd" clip-rule="evenodd" d="M45.874 26.5203H44.324C44.1909 26.5203 44.0778 26.619 44.0579 26.7532L43.9892 27.1967L43.8803 27.036C43.5445 26.5376 42.7962 26.3711 42.0488 26.3711C40.3349 26.3711 38.8716 27.6984 38.5866 29.5602C38.4388 30.4889 38.6485 31.377 39.1637 31.9963C39.6375 32.5657 40.3127 32.803 41.1173 32.803C42.4983 32.803 43.2641 31.8951 43.2641 31.8951L43.195 32.3358C43.169 32.5042 43.2958 32.6553 43.4621 32.6553H44.8587C45.0798 32.6553 45.2683 32.4907 45.303 32.2665L46.1416 26.8389C46.1672 26.6718 46.0403 26.5203 45.874 26.5203ZM43.7121 29.6065C43.5634 30.5124 42.8591 31.1205 41.9621 31.1205C41.5127 31.1205 41.1519 30.9728 40.9207 30.693C40.6916 30.4151 40.6054 30.0195 40.6773 29.5788C40.818 28.6807 41.5321 28.0525 42.4154 28.0525C42.8558 28.0525 43.2139 28.2023 43.4497 28.4844C43.6869 28.7696 43.7807 29.1677 43.7121 29.6065Z" fill="#45108A"/>
<path fill-rule="evenodd" clip-rule="evenodd" d="M47.5732 23.7549L46.2439 32.402C46.2179 32.5696 46.3447 32.7206 46.51 32.7206H47.8465C48.0687 32.7206 48.257 32.556 48.2911 32.3318L49.602 23.8406C49.6281 23.673 49.5012 23.5215 49.3359 23.5215H47.8394C47.7073 23.5219 47.5936 23.6208 47.5732 23.7549Z" fill="#45108A"/>
</svg>
