<svg xmlns="http://www.w3.org/2000/svg" width="63" height="53" viewBox="0 0 25 25">
<path d="M23,6.543c0-.016-.009-.029-.01-.045a.5.5,0,0,0,0-.116.518.518,0,0,0-.04-.082.577.577,0,0,0-.032-.066.493.493,0,0,0-.19-.181l-6-3a.477.477,0,0,0-.2-.048.146.146,0,0,0-.02,0H2.5c-.014,0-.025.009-.039.01a.5.5,0,0,0-.165.043.411.411,0,0,0-.056.027.479.479,0,0,0-.154.147s-.008.006-.011.01v0l0,0a.484.484,0,0,0-.065.215c0,.022,0,.042,0,.063a.475.475,0,0,0,.034.163c0,.013,0,.027.009.04l9,18c.006.013.02.019.028.031a.474.474,0,0,0,.11.126.381.381,0,0,0,.05.04.482.482,0,0,0,.215.076h0a.3.3,0,0,0,.042,0h0a.5.5,0,0,0,.207-.049.569.569,0,0,0,.052-.033.49.49,0,0,0,.115-.1c.008-.01.021-.014.029-.025l11-15a.491.491,0,0,0,.087-.232C22.991,6.556,23,6.551,23,6.543ZM12.348,8.826,4.305,4H15.566Zm-.372.943-.826,9.913L3.715,4.812Zm.994.112,8.244-2.473L12.145,19.774Zm8.178-3.5L13.687,8.622l2.984-4.477Z" fill="#45108A" />
</svg>