<svg width="59" height="40" viewBox="0 0 59 40" fill="none" xmlns="http://www.w3.org/2000/svg">
<rect x="0.833496" y="0.5" width="56.7778" height="39" rx="3.5" stroke="#45108A"/>
<path d="M25.9868 27.4333H22.1401L24.5461 13.4326H28.3926L25.9868 27.4333Z" fill="#45108A"/>
<path d="M39.9311 13.7748C39.1724 13.4915 37.9689 13.1787 36.4809 13.1787C32.6822 13.1787 30.0072 15.0851 29.9908 17.8106C29.9592 19.8215 31.906 20.9385 33.3621 21.6089C34.8503 22.2941 35.3562 22.7413 35.3562 23.352C35.341 24.29 34.1536 24.7223 33.0461 24.7223C31.5103 24.7223 30.6874 24.4994 29.4369 23.9776L28.9304 23.7539L28.3921 26.8967C29.2943 27.2835 30.9565 27.6268 32.6822 27.6419C36.7184 27.6419 39.3461 25.765 39.3772 22.8605C39.3926 21.2667 38.3646 20.0454 36.1484 19.0475C34.803 18.4069 33.979 17.9749 33.979 17.3195C33.9948 16.7236 34.6759 16.1133 36.1946 16.1133C37.4452 16.0834 38.364 16.3663 39.06 16.6494L39.408 16.7981L39.9311 13.7748Z" fill="#45108A"/>
<path fill-rule="evenodd" clip-rule="evenodd" d="M46.8166 13.4326H49.792L52.8953 27.4331H49.3336C49.3336 27.4331 48.9851 25.8245 48.8747 25.3329H43.9358C43.793 25.7051 43.1285 27.4331 43.1285 27.4331H39.0923L44.8061 14.5943C45.2019 13.6856 45.899 13.4326 46.8166 13.4326ZM46.5796 18.556C46.5796 18.556 45.3606 21.669 45.0438 22.4733H48.2412C48.083 21.7733 47.3545 18.422 47.3545 18.422L47.0857 17.2156C46.9725 17.5263 46.8088 17.9534 46.6984 18.2414C46.6235 18.4367 46.5731 18.5681 46.5796 18.556Z" fill="#45108A"/>
<path fill-rule="evenodd" clip-rule="evenodd" d="M5.4725 13.4326H11.6614C12.5003 13.4621 13.181 13.7153 13.4025 14.6095L14.7474 21.0416C14.7476 21.0422 14.7478 21.0429 14.748 21.0435L15.1596 22.9798L18.9268 13.4326H22.9944L16.9481 27.4185H12.8803L9.45174 15.2531C8.26877 14.6023 6.91867 14.0788 5.40918 13.7155L5.4725 13.4326Z" fill="#45108A"/>
</svg>
