<svg width="59" height="40" viewBox="0 0 59 40" fill="none" xmlns="http://www.w3.org/2000/svg">
<rect x="0.805664" y="0.5" width="56.7778" height="39" rx="3.5" stroke="#45108A"/>
<path fill-rule="evenodd" clip-rule="evenodd" d="M20.2004 28.1021C20.5051 27.9434 21.0231 27.7351 21.5718 27.7351C22.8312 27.7351 23.512 28.5878 23.512 30.1745C23.512 32.0282 22.598 32.9305 21.1249 32.9305C20.5863 32.9305 19.7534 32.762 19.1437 32.4443V25.5243L20.2004 25.2764V28.1021ZM20.1904 32.0776C20.5152 32.2165 20.8709 32.2362 21.125 32.2362C21.8767 32.2362 22.4455 31.7803 22.4455 30.1746C22.4455 28.9151 21.9782 28.5086 21.2976 28.5086C20.8911 28.5086 20.5968 28.6177 20.1904 28.8358V32.0776ZM9.37047 27.8638H9.44162L10.8229 32.8114H11.92L13.5659 25.7817H12.3772L11.3411 31.0267H11.2703L9.85791 25.7817H8.95382L7.63326 31.0267H7.56211L6.42428 25.7817H5.28662L6.93238 32.8114H8.02925L9.37047 27.8638ZM18.0675 32.4742V31.7207C17.5087 32.0479 17.001 32.2363 16.4524 32.2363C15.4061 32.2363 14.9084 31.7106 14.9084 30.521H18.2198V30.1543C18.2198 28.5385 17.4376 27.7352 16.168 27.7352C14.6443 27.7352 13.862 28.8259 13.862 30.3327C13.862 31.8994 14.5629 32.9306 16.2694 32.9306C17.001 32.9306 17.6104 32.7323 18.0675 32.4742ZM17.2548 29.8568H14.929C15.0404 28.8655 15.5176 28.3994 16.1376 28.3994C16.6861 28.3994 17.2045 28.8155 17.2548 29.8568ZM28.1851 31.3241H28.1341L25.8586 25.7817H24.6295V32.8114H25.5438V27.8343H25.6351L27.7078 32.8114H28.3576L30.4301 27.7152H30.5217V32.8114H31.6188V25.7817H30.3589L28.1851 31.3241ZM32.7364 30.3327C32.7364 28.5976 33.7116 27.7352 35.0525 27.7352C36.3935 27.7352 37.369 28.5976 37.369 30.3327C37.369 32.0283 36.4444 32.9306 35.0525 32.9306C33.6606 32.9306 32.7364 32.0283 32.7364 30.3327ZM36.302 30.3329C36.302 28.9946 35.7431 28.4296 35.0524 28.4296C34.3819 28.4296 33.8028 28.9946 33.8028 30.3329C33.8028 31.6916 34.3314 32.2365 35.0524 32.2365C35.7736 32.2365 36.302 31.6916 36.302 30.3329ZM40.9236 27.7352C39.756 27.7352 38.7906 28.2011 38.3335 28.4689V32.8116H39.3902V28.8853C39.7049 28.7072 40.2231 28.5283 40.6297 28.5283C41.1477 28.5283 41.5435 28.6672 41.5435 29.4505V32.8116H42.5999V29.2222C42.5999 28.2011 42.1432 27.7352 40.9236 27.7352ZM47.7502 31.7207V32.4742C47.2933 32.7323 46.684 32.9306 45.9522 32.9306C44.2459 32.9306 43.5448 31.8994 43.5448 30.3327C43.5448 28.8259 44.3273 27.7352 45.8509 27.7352C47.121 27.7352 47.9034 28.5385 47.9034 30.1543V30.521H44.5916C44.5916 31.7106 45.0893 32.2363 46.1355 32.2363C46.684 32.2363 47.1919 32.0479 47.7502 31.7207ZM44.6118 29.8568H46.938C46.8875 28.8155 46.3689 28.3994 45.8204 28.3994C45.2006 28.3994 44.7237 28.8655 44.6118 29.8568ZM52.9419 27.9037H51.8549L50.6964 31.552H50.6359L49.3356 27.9037H48.2181L50.1686 32.861C49.9244 33.5945 49.4982 34.1303 48.8074 34.1303V34.9429C49.9751 34.9429 50.5949 34.2294 51.103 32.861L52.9419 27.9037Z" fill="#45108A"/>
<path fill-rule="evenodd" clip-rule="evenodd" d="M28.4332 5C29.8312 5 31.1552 5.31773 32.3344 5.88183C32.5196 5.96757 32.7043 6.06191 32.8895 6.16607L32.0699 6.88201L30.8384 5.63932L28.76 7.44857L27.5255 6.13363L23.6539 9.5396L26.136 12.2093L25.1606 13.0466L27.6053 15.7203L26.6356 16.5556L30.1291 20.3507L32.2028 18.4875L33.9957 20.4841C33.6391 20.7547 33.2507 21.0093 32.8227 21.2446C31.5262 21.9662 30.0278 22.3793 28.4332 22.3793C23.5294 22.3793 19.5298 18.4754 19.5298 13.6899C19.5298 8.90343 23.5294 5 28.4332 5ZM26.8106 13.1406L28.9278 11.2798L30.8342 13.3467L28.7172 15.2068L26.8106 13.1406ZM30.4335 14.8507L28.3161 16.711L30.223 18.7778L32.3402 16.917L30.4335 14.8507ZM25.2957 9.61174L27.4129 7.75147L29.3188 9.81778L27.2016 11.6781L25.2957 9.61174ZM30.7688 7.21547L29.1809 8.61055L30.6105 10.1608L32.1984 8.7652L30.7688 7.21547ZM32.0022 15.0018L33.5906 13.6062L35.0203 15.1562L33.4324 16.5515L32.0022 15.0018ZM34.9867 16.7365L33.3991 18.1323L34.8288 19.6815L36.4167 18.2862L34.9867 16.7365ZM34.0386 10.9578L35.0972 10.0275L36.0502 11.0607L34.9921 11.9907L34.0386 10.9578ZM33.7448 6.95778L32.6862 7.88783L33.6391 8.92098L34.6979 7.99094L33.7448 6.95778ZM35.392 14.0271L36.4506 13.0969L37.4037 14.1299L36.3451 15.0601L35.392 14.0271ZM32.2322 10.3314L30.6445 11.7271L32.0745 13.2763L33.6618 11.8811L32.2322 10.3314Z" fill="#45108A"/>
</svg>
