<svg width="30" height="30" viewBox="0 0 30 30" fill="none" xmlns="http://www.w3.org/2000/svg">
<path d="M22.5 0H7.5C3.375 0 0 3.375 0 7.5V22.5C0 26.625 3.375 30 7.5 30H22.5C26.625 30 30 26.625 30 22.5V7.5C30 3.375 26.625 0 22.5 0ZM28.125 22.5C28.125 25.6875 25.6875 28.125 22.5 28.125H7.5C4.3125 28.125 1.875 25.6875 1.875 22.5V7.5C1.875 4.3125 4.3125 1.875 7.5 1.875H22.5C25.6875 1.875 28.125 4.3125 28.125 7.5V22.5Z" fill="#fff"/>
<path d="M19.3125 13.6871H10.6875C9.9375 13.6871 9.375 14.2496 9.375 14.9996C9.375 15.7496 9.9375 16.3121 10.6875 16.3121H19.3125C20.0625 16.3121 20.625 15.7496 20.625 14.9996C20.625 14.2496 20.0625 13.6871 19.3125 13.6871Z" fill="#fff"/>
</svg>
