<svg width="8" height="14" viewBox="0 0 8 14" fill="none" xmlns="http://www.w3.org/2000/svg">
<path d="M7.92949 6.95624C7.92003 6.67039 7.80587 6.39797 7.60872 6.19076L2.00986 0.358603C1.90359 0.248027 1.77659 0.159471 1.63609 0.0979789C1.4956 0.0364871 1.34436 0.0032762 1.19103 0.000230423C1.0377 -0.00281535 0.885268 0.0243594 0.742442 0.0802232C0.599616 0.136087 0.469191 0.219543 0.358615 0.325812C0.248039 0.43208 0.159477 0.559081 0.097985 0.699577C0.0364933 0.840072 0.0032761 0.991302 0.000230343 1.14463C-0.00281542 1.29797 0.02437 1.4504 0.0802338 1.59322C0.136098 1.73605 0.219546 1.86648 0.325815 1.97706L5.14464 6.99999L0.325815 12.0229C0.219546 12.1335 0.136098 12.2639 0.0802338 12.4067C0.02437 12.5496 -0.00281542 12.702 0.000230343 12.8554C0.00327611 13.0087 0.0364933 13.1599 0.097985 13.3004C0.159477 13.4409 0.248039 13.5679 0.358615 13.6742C0.469191 13.7804 0.599616 13.8639 0.742442 13.9197C0.885268 13.9756 1.0377 14.0028 1.19103 13.9998C1.34436 13.9967 1.4956 13.9635 1.63609 13.902C1.77659 13.8405 1.90359 13.752 2.00986 13.6414L7.60872 7.80921C7.71669 7.69584 7.80074 7.5619 7.85584 7.41536C7.91095 7.26882 7.936 7.11267 7.92949 6.95624Z" fill="#495056"/>
</svg>
