<svg width="211" height="294" viewBox="0 0 211 294" fill="none" xmlns="http://www.w3.org/2000/svg">
<path d="M47.9161 23.0039V46.0078H19.8985H-8.11909V60.7539V75.5H3.55981C17.775 75.5 20.3704 76.0898 24.1454 79.9828C28.6872 84.7016 28.4512 80.9855 28.4512 150.351C28.4512 185.27 28.2153 213.052 27.8614 214.349C27.2715 217.004 25.8559 219.127 23.4965 220.838C22.0219 221.958 20.9012 222.076 9.63521 222.253L-2.57456 222.43L-5.0519 237.648C-6.46753 245.965 -7.7062 253.397 -7.94214 254.105L-8.23706 255.402H18.4829C33.229 255.402 45.8516 255.579 46.6184 255.756L47.9161 256.11V279.055V302H62.0723H76.2286V278.937V255.874L77.5852 256.228C78.293 256.405 83.1887 256.582 88.4973 256.582H98.0528V279.291V302H111.914H125.775L125.893 278.878L126.07 255.697L135.154 254.989C183.167 251.155 205.404 233.991 209.592 197.598C210.949 185.683 209.238 172.765 205.286 164.802C199.919 153.949 189.007 145.514 174.909 141.209L169.896 139.675L173.848 137.316C180.159 133.541 185.881 127.288 189.066 120.8C192.487 113.781 193.607 108.649 193.607 99.8605C193.607 91.7797 192.9 86.884 190.953 81.0445C184.465 61.6976 166.534 50.9625 133.443 46.6566L126.07 45.7129L125.893 22.8269L125.775 0H111.914H98.0528V22.0602V44.0613L94.4547 44.4742C92.4493 44.6512 87.3766 44.8281 83.2477 44.8281H75.6387V22.4141V0H61.7774H47.9161V23.0039ZM105.662 77.9184C118.048 79.0391 128.194 82.4601 133.561 87.2379C143.235 95.8496 144.238 112.011 135.744 120.859C127.309 129.648 112.799 133.246 86.1379 133.305H76.2286V105.7C76.2286 90.482 76.4055 77.8594 76.6415 77.6824C77.2313 77.0336 98.2887 77.2105 105.662 77.9184ZM119.759 162.443C130.494 164.33 141.76 168.813 146.361 173.001C150.195 176.599 153.498 183.087 154.324 188.809C155.327 195.592 151.67 205.502 146.538 209.984C143.058 213.052 134.623 217.121 128.43 218.773C118.107 221.427 100.707 222.902 83.7786 222.489L76.2286 222.312V192.053C76.2286 175.42 76.4055 161.617 76.7004 161.381C77.5262 160.496 113.802 161.44 119.759 162.443Z" fill="#F8C943" fill-opacity="0.3"/>
</svg>
