<svg width="268" height="255" viewBox="0 0 268 255" fill="none" xmlns="http://www.w3.org/2000/svg">
<g opacity="0.14">
<path fill-rule="evenodd" clip-rule="evenodd" d="M264.244 119.248L267.941 107.393L255.704 107.783C254.676 107.783 247.155 107.558 239.874 102.271C240.422 102.316 240.954 102.399 241.524 102.399C249.023 102.399 256.289 97.8698 259.19 91.3911L264.454 79.6935C257.856 79.7835 251.819 78.9512 251.819 78.9512C251.767 78.9512 247.013 78.3288 241.517 72.6975C237.572 68.6708 232.691 66.5338 227.405 66.5338C225.312 66.5418 223.233 66.8732 221.241 67.5161C221.518 66.5712 221.781 65.6039 221.938 64.6142C223.61 53.6664 216.584 45.3281 216.584 45.3281L207.384 33.9155L201.677 47.3227C201.655 47.3677 200.215 50.5171 197.643 52.0467C196.863 48.1026 194.951 43.671 190.872 39.4344C183.171 31.456 173.806 30.2562 168.902 30.2562C166.63 30.2562 165.002 30.5112 164.612 30.5712L153.507 32.7607C154.145 30.2787 155.517 25.9371 158.006 22.0454L164.14 12.4849L148.716 14.2471L143.804 3.79422L134.289 8.7057L125.493 0L116.72 8.6982L107.189 3.79422L102.285 14.2396L86.8686 12.4774L93.0098 22.0529C95.5068 25.9446 96.864 30.2637 97.5014 32.7457L86.9061 30.6462L86.5386 30.5937C85.0753 30.3631 83.5959 30.2503 82.1145 30.2562C77.2105 30.2562 67.845 31.456 60.1666 39.4344C56.0799 43.6635 54.1603 48.1026 53.3805 52.0467C50.8235 50.5246 49.3913 47.4352 49.3913 47.4352L43.6775 33.938L34.3269 45.4406C33.1871 46.9178 27.5558 54.7612 29.078 64.6366C29.243 65.6189 29.4979 66.5787 29.7753 67.5236C27.7893 66.8785 25.7148 66.5471 23.6266 66.5413C18.3327 66.5413 13.4512 68.6783 9.49953 72.705C4.02566 78.3138 -0.705864 78.9512 -0.668373 78.9512C-0.668373 78.9512 -5.66984 79.851 -13.4157 79.701L-8.17432 91.3986C-5.26492 97.8773 2.00858 102.406 9.49203 102.406C10.0619 102.406 10.5943 102.324 11.1492 102.279C3.87569 107.573 -3.63776 107.79 -4.54507 107.79L-17 107.393L-13.2283 119.24C-11.3237 125.359 -4.97998 135.475 7.16751 136.562C5.84778 142.111 2.91589 148.334 -3.51778 151.019L-12.8009 154.843L-7.73941 163.676C-4.8825 168.438 1.82861 174.009 11.3741 174.009C13.4362 174.009 15.4308 173.792 17.3579 173.387C17.8453 175.561 18.4602 177.736 19.1875 179.91C22.0219 188.384 19.5774 194.292 19.5475 194.36L14.9734 203.973L25.1938 206.672C25.3213 206.717 28.4181 207.572 32.2798 207.572C34.0345 207.572 35.7141 207.385 37.2888 207.01C38.4735 206.732 39.6133 206.357 40.7156 205.915C42.0428 208.292 43.6475 210.467 45.5221 212.409C52.0757 219.15 61.3738 222.562 73.1314 222.562H73.1689L81.5672 222.449L64.2157 229.678L77.3905 236.059C82.182 238.398 87.8509 241.158 93.6397 243.272L91.99 247.779L96.5266 249.856C96.9315 250.043 105.675 253.95 120.184 254.782C120.184 254.782 123.686 254.947 125.613 254.947C127.548 254.947 131.012 254.775 131.012 254.775C145.424 253.92 154.092 250.043 154.497 249.856L159.049 247.779L157.391 243.265C163.33 241.09 169.217 238.211 173.813 235.969L186.74 229.67L169.442 222.449L177.877 222.562C189.65 222.562 198.948 219.142 205.494 212.401C207.361 210.467 208.958 208.299 210.293 205.915C212.969 207.022 215.84 207.583 218.736 207.565C222.538 207.565 225.665 206.725 225.747 206.695L236.02 203.973L231.544 194.532C231.439 194.292 228.994 188.384 231.829 179.895C232.556 177.736 233.163 175.554 233.658 173.387C235.585 173.792 237.602 174.002 239.68 174.009C251.842 174.009 257.676 165.438 258.801 163.579L263.817 154.836L254.534 151.019C248.085 148.342 245.161 142.118 243.856 136.577C255.846 135.527 262.272 125.404 264.252 119.255L264.244 119.248Z" fill="#FFFFFE"/>
<path fill-rule="evenodd" clip-rule="evenodd" d="M125.489 36.3116C115.666 36.3191 108.295 39.5435 106.691 43.3452L125.489 50.7687L144.296 43.3452C142.706 39.5435 135.335 36.3191 125.489 36.3116ZM125.692 233.064H125.317C119.363 233.101 111.152 231.879 107.208 230.716L102.454 243.606C105.589 244.724 116.206 246.868 125.512 246.868C134.802 246.868 145.428 244.724 148.555 243.606L143.808 230.724C139.841 231.879 131.646 233.101 125.692 233.064ZM161.662 220.241C158.123 222.251 150.227 225.265 145.63 226.66L149.484 237.308C156.593 235.358 162.464 233.086 167.308 230.649L159.3 227.987L161.662 220.241ZM89.3394 220.241L91.7089 227.987L83.693 230.649C88.5295 233.086 94.4233 235.358 101.509 237.3L105.371 226.652C100.782 225.258 92.8711 222.251 89.3394 220.241ZM125.489 23.9917C132.905 23.9917 140.164 25.7688 145.758 28.8807C146.268 27.171 146.98 25.0865 147.947 22.9044L145.833 23.1594L143.621 23.3843L142.683 21.3672L139.849 15.391L134.705 18.0754L132.695 19.0952L131.091 17.5205L125.489 11.9717L119.903 17.5205L118.306 19.0952L116.304 18.0754L111.13 15.391L108.333 21.3672L107.381 23.3918L105.161 23.1594L103.062 22.9044C104.029 25.0865 104.734 27.171 105.251 28.8807C110.86 25.7688 118.118 23.9917 125.497 23.9917H125.489ZM238.604 93.1049C239.571 93.4348 240.546 93.5848 241.513 93.5848C245.712 93.5848 249.761 90.8629 251.148 87.7585C251.148 87.7585 243.463 87.2936 235.199 78.8879C232.575 76.1734 229.785 75.3561 227.401 75.3561C223.689 75.3561 220.9 77.3132 220.9 77.3132C230.888 82.6371 232.92 91.1853 238.604 93.1049ZM9.48836 93.5773C10.4632 93.5773 11.438 93.4349 12.3753 93.0974C18.0741 91.1778 20.1287 82.6371 30.0941 77.3207C30.0941 77.3207 27.3047 75.3561 23.6154 75.3561C21.2159 75.3561 18.434 76.1659 15.7946 78.8954C7.53877 87.2936 -0.139648 87.766 -0.139648 87.766C1.24007 90.8629 5.29673 93.5848 9.48836 93.5848V93.5773Z" fill="#FFFFFE"/>
<path fill-rule="evenodd" clip-rule="evenodd" d="M235.596 154.43C227.872 150.606 222.998 140.483 221.813 136.839C220.539 156.919 210.753 170.852 199.318 184.259C193.379 191.217 191.31 197.981 191.31 197.981C191.31 197.981 192.457 190.317 197.586 184.079C208.256 171.241 218.394 155.255 219.151 136.764C219.669 123.866 216.362 113.406 211.188 104.783C214.082 113.758 213.67 124.759 203.855 135.024C203.855 135.024 223.403 111.569 196.079 87.5137C185.146 78.3656 173.178 72.7118 167.022 68.7076C189.27 75.9811 200.143 67.9728 200.143 67.9728C193.034 74.144 183.834 74.039 178.127 73.1467C179.68 73.904 181.292 74.6989 183.016 75.6212C201.785 85.8341 218.642 102.638 221.521 125.898V125.718C225.878 148.566 235.596 154.43 235.596 154.43ZM241.309 127.81C241.482 127.825 241.632 127.825 241.804 127.825C252.265 127.825 255.804 116.6 255.804 116.6H255.601C253.682 116.6 238.13 116.15 227.137 102.151C219.909 92.9501 213.978 84.8593 202.265 81.6799L201.11 81.47L200.863 80.2927C200.54 78.5006 201.763 76.8209 204.552 75.0138C220.711 64.411 209.726 50.8838 209.726 50.8838C209.726 50.8838 205.122 61.6966 194.796 61.6966L194.024 61.6816C192.854 61.6216 191.722 61.5841 190.582 61.3366L188.678 60.9617C188.678 60.9617 191.625 52.9384 184.516 45.5824C179.17 40.0185 172.654 39.0737 168.897 39.0737C167 39.0737 165.8 39.3212 165.8 39.3212C169.369 43.9927 171.949 51.7536 167.825 56.5376C164.263 60.6468 155.565 60.8492 155.565 66.983C155.565 69.5774 157.987 72.6068 162.336 75.3287C175.413 83.577 188.393 94.5248 193.792 109.199C200.54 127.495 192.937 139.643 182.094 146.609C182.094 146.609 185.498 149.743 190.425 150.148C191.43 150.246 192.412 150.291 193.327 150.291C203.742 150.291 209.126 145.394 209.126 145.394C209.126 145.394 208.234 152.158 202.827 158.434C197.818 164.223 191.257 167.642 181.247 167.785C181.247 167.785 180.932 172.434 185.363 176.468C188.205 179.01 194.751 179.842 194.751 179.842C194.751 179.842 182.484 182.324 181.127 200.478C180.392 210.316 177.887 213.728 177.887 213.728H178.105C206.569 213.728 205.842 189.268 205.842 189.268C205.842 189.268 207.821 196.511 215.762 198.401C216.722 198.656 217.749 198.753 218.724 198.753C221.273 198.753 223.501 198.153 223.501 198.153C223.501 198.153 219.339 189.365 223.463 177.075C226.89 166.87 226.335 159.311 226.335 159.311C226.335 159.311 230.167 165.123 239.682 165.175H239.78C242.027 165.21 244.247 164.677 246.235 163.626C248.222 162.575 249.911 161.039 251.147 159.161C232.169 151.266 234.043 125.793 234.043 125.793C234.043 125.793 236.503 127.638 241.309 127.818V127.81ZM51.681 184.259C40.2459 170.852 30.4604 156.919 29.1707 136.839C27.9934 140.49 23.1269 150.613 15.411 154.43C15.411 154.43 25.114 148.566 29.4706 125.718V125.898C32.3575 102.638 49.214 85.8341 67.9826 75.6287C69.7073 74.6914 71.327 73.904 72.8641 73.1542C67.1653 74.039 57.9572 74.144 50.8562 67.9803C50.8562 67.9803 61.7289 75.9811 83.9693 68.7076C77.8206 72.7118 65.8531 78.3656 54.9278 87.5137C27.596 111.569 47.1444 135.024 47.1444 135.024C37.3215 124.751 36.9166 113.766 39.811 104.783C34.637 113.406 31.3227 123.866 31.8626 136.771C32.6049 155.255 42.7354 171.241 53.3832 184.086C58.5421 190.31 59.7043 197.973 59.7043 197.973C59.7043 197.973 57.6048 191.217 51.681 184.259ZM56.2551 179.835C56.2551 179.835 62.8012 179.01 65.6431 176.46C70.0672 172.434 69.7598 167.785 69.7598 167.785C59.7418 167.642 53.1882 164.223 48.1567 158.434C42.7728 152.158 41.873 145.394 41.873 145.394C41.873 145.394 47.2569 150.291 57.6573 150.291C58.5946 150.291 59.5694 150.246 60.5667 150.148C63.644 149.837 66.5555 148.603 68.9199 146.609C58.0622 139.643 50.4588 127.495 57.1999 109.192C62.5988 94.5323 75.5711 83.577 88.6634 75.3212C93.005 72.6068 95.4195 69.5774 95.4195 66.983C95.4195 60.8492 86.7363 60.6468 83.1745 56.5376C79.0504 51.7536 81.6373 43.9927 85.1991 39.3212C85.1991 39.3212 84.0068 39.0737 82.1022 39.0737C78.353 39.0737 71.8368 40.0185 66.4829 45.5824C59.3594 52.9459 62.3213 60.9692 62.3213 60.9692L60.4167 61.3441C59.2844 61.5766 58.1372 61.6216 56.9674 61.6891L56.2176 61.6966C45.8697 61.6966 41.2732 50.8913 41.2732 50.8913C41.2732 50.8913 30.3029 64.411 46.4621 75.0138C49.2365 76.8209 50.4588 78.5081 50.1363 80.2927L49.8889 81.4625L48.7116 81.6724C37.0215 84.8593 31.0903 92.9501 23.8468 102.151C12.854 116.15 -2.68277 116.6 -4.60987 116.6H-4.81982C-4.81982 116.6 -1.27306 127.825 9.19478 127.825C9.35975 127.825 9.50972 127.825 9.68968 127.81C14.4962 127.638 16.9632 125.793 16.9632 125.793C16.9632 125.793 18.8228 151.266 -0.14829 159.161C-0.14829 159.161 3.3085 165.183 11.2269 165.183H11.3168C20.8399 165.123 24.6641 159.311 24.6641 159.311C24.6641 159.311 24.1092 166.877 27.521 177.075C31.6451 189.373 27.506 198.146 27.506 198.146C27.506 198.146 29.718 198.746 32.275 198.746C33.2648 198.746 34.2771 198.656 35.2294 198.401C43.1628 196.511 45.1499 189.268 45.1499 189.268C45.1499 189.268 44.4225 213.728 72.8941 213.728H73.1041C73.1041 213.728 70.6071 210.316 69.8798 200.478C68.53 182.332 56.2476 179.835 56.2476 179.835H56.2551ZM119.07 89.7033H132.492V94.3148C130.917 92.3802 127.843 92.7776 127.843 92.7776V99.4288C127.843 99.4288 127.948 102.698 129.103 104.115H122.459C123.621 102.698 123.719 99.4288 123.719 99.4288V92.7776C123.719 92.7776 120.659 92.3802 119.07 94.3148V89.7033ZM104.448 90.3931C104.913 90.8955 105.37 91.4429 105.812 91.9903C105.917 92.1178 106.015 92.2303 106.12 92.3802C106.532 92.9201 106.945 93.505 107.342 94.0899L107.612 94.4873C108.084 95.2071 108.534 95.9495 108.984 96.7218C113.093 103.823 119.662 108.067 125.488 108.074C131.33 108.067 137.891 103.823 142.007 96.7218C142.465 95.9345 142.922 95.1696 143.402 94.4498C143.949 93.6111 144.535 92.7979 145.157 92.0128C145.614 91.4429 146.087 90.888 146.566 90.3781C146.649 90.3032 146.716 90.2207 146.799 90.1532C148.898 88.0086 151.38 86.374 154.65 85.4666L153.195 84.6193H153.12L147.331 81.26L141.4 77.8482L125.533 86.5014L125.488 86.4639L125.466 86.5014L109.599 77.8482L103.66 81.26L97.8715 84.6193H97.804L96.3418 85.4666C99.6036 86.3665 102.093 87.9861 104.193 90.1382C104.283 90.2132 104.343 90.3182 104.448 90.3931Z" fill="#FFFFFE"/>
<path fill-rule="evenodd" clip-rule="evenodd" d="M120.452 60.385V64.7341L119.62 64.3441C119.582 64.3142 118.353 64.0442 116.231 62.3496C112.714 59.6201 112.646 57.1006 112.646 57.1006L120.445 60.385H120.452ZM124.127 80.7583V53.7488L106.97 47.915L111.499 74.0846L124.134 80.7583H124.127ZM130.575 60.385L138.374 57.1006C138.374 57.1006 138.314 59.6201 134.782 62.3496C132.66 64.0367 131.438 64.3142 131.4 64.3441L130.575 64.7266V60.385ZM139.521 74.0921L144.027 47.9225L126.878 53.7488V80.7583L139.521 74.0846V74.0921ZM99.8615 143.37C101.534 143.97 103.558 144.098 104.601 144.098C104.638 143.97 104.698 143.813 104.751 143.618C104.833 143.318 104.923 143.003 104.99 142.673C105.283 141.173 105.38 139.486 105.41 138.391C104.451 137.821 103.67 136.996 103.153 136.007C102.516 134.665 101.609 134.035 100.281 134.035C98.5568 134.035 96.7047 135.085 95.9024 135.564C95.2725 139.299 98.0244 142.688 99.8615 143.363V143.37ZM137.819 129.041C134.639 132.513 128.393 138.564 128.093 138.864L127.718 139.239L107.997 138.931C107.981 140.563 107.769 142.186 107.367 143.768L107.21 144.39L130.658 148.619C133.095 146.91 139.806 141.998 142.415 140.071C140.518 137.297 140.338 134.005 140.766 131.695C139.64 130.984 138.643 130.086 137.819 129.041Z" fill="#FFFFFE"/>
<path fill-rule="evenodd" clip-rule="evenodd" d="M140.488 105.283C135.944 109.797 131.587 111.469 127.696 111.859C126.983 111.936 126.268 111.976 125.551 111.979H125.454C124.022 111.978 122.594 111.828 121.194 111.529C120.94 112.541 120.617 114.663 121.539 116.673C122.364 118.495 124.036 119.852 126.481 120.759L127.306 121.082L127.313 121.967C127.313 122.229 127.508 127.973 133.762 129.57C134.782 128.52 135.711 127.568 136.386 126.766C135.112 123.759 135.786 120.684 137.639 119.177C137.564 119.5 136.739 127.036 142.775 129.84L143.772 130.312L143.472 131.37C143.375 131.692 141.365 138.988 148.676 141.703L149.966 142.197L149.389 143.45C149.261 143.727 146.397 150.348 153.145 154.112H167.775V142.467C162.571 141.83 160.374 137.638 159.804 134.669C157.382 134.257 155.515 133.214 154.233 131.512C151.158 127.463 153.798 123.751 153.835 123.549C153.828 123.579 153.835 127.523 156.265 129.967C157.472 131.137 158.897 132.052 161.064 132.254L162.121 132.352L162.211 133.439C162.234 133.672 162.811 139.018 167.775 139.858L167.767 116.088C167.767 112.399 168.84 108.694 170.129 105.275H140.488V105.283ZM101.099 116.178L100.709 131.31L102.433 131.58L106.633 117.055L104.495 112.586L101.106 116.178H101.099ZM110.202 172.221C110.086 172.218 109.973 172.19 109.869 172.141C109.764 172.092 109.671 172.023 109.594 171.936C109.518 171.85 109.46 171.749 109.424 171.639C109.387 171.53 109.374 171.414 109.384 171.299C109.391 171.185 109.42 171.074 109.471 170.972C109.521 170.87 109.591 170.778 109.677 170.704C109.763 170.629 109.863 170.572 109.971 170.537C110.079 170.501 110.193 170.487 110.307 170.497C110.802 170.519 111.147 170.946 111.132 171.411C111.114 171.642 111.007 171.856 110.833 172.007C110.659 172.159 110.432 172.236 110.202 172.221ZM147.409 185.621C147.537 185.621 147.687 185.636 147.821 185.673C150.446 186.423 151.098 195.856 155.68 196.696C156.13 196.794 156.55 196.816 156.91 196.816C158.237 196.816 159.024 196.254 159.879 195.241C159.879 195.241 157.569 191.62 155.845 189.168C153.558 185.958 151.781 182.082 147.514 182.082C147.409 182.082 147.289 182.082 147.177 182.097C146.364 182.129 145.578 182.395 144.912 182.861C143.488 181.919 141.821 181.411 140.113 181.399C137.451 181.399 135.367 182.629 134.324 182.629H134.287L124.764 181.684C123.272 181.534 122.094 180.035 121.667 179.45L121.502 179.195C121.502 178.932 121.502 178.67 121.487 178.437C121.164 170.632 115.136 167.295 112.984 167.235C112.984 167.235 113.239 165.75 112.661 165.188L110.562 167.737L103.663 164.273L108.582 170.032L104.42 174.718C103.896 175.251 103.963 175.97 104.181 176.278L105.98 177.868L108.26 176.48C108.372 176.398 108.582 176.368 108.837 176.368C109.467 176.368 110.412 176.533 111.259 176.533C112.196 176.533 112.999 176.338 113.096 175.461C112.811 178.355 110.127 183.386 111.889 187.338L113.194 190.322L104.773 189.108L100.829 195.774C99.6139 197.993 99.419 200.393 100.589 201.698L102.066 203.55C102.066 203.55 104.136 201.353 104.593 199.905L103.926 199.171C103.363 198.548 103.393 197.993 103.738 197.326L106.213 193.217L116.148 195.564L116.673 194.664C117.348 193.539 118.323 193.209 119.387 193.209C119.83 193.209 120.28 193.262 120.745 193.337C122.589 193.704 125.626 194.192 128.663 194.192C132 194.192 135.307 193.592 137.069 191.62C140.668 196.966 147.971 197.813 147.394 200.535L145.474 209.698C146.749 209.638 147.971 209.556 149.134 209.399L150.963 199.868C151.112 199.059 151.242 198.246 151.353 197.431C150.648 196.711 148.946 195.204 147.979 193.367C146.697 190.885 147.394 189.588 146.194 186.363C146.194 186.363 146.569 185.613 147.409 185.613V185.621Z" fill="#FFFFFE"/>
<path fill-rule="evenodd" clip-rule="evenodd" d="M96.6214 194.285C96.6214 194.285 99.9207 192.935 100.221 191.96L99.7708 190.866C99.4633 190.146 99.5008 189.366 100.108 188.946L103.662 186.479L109.609 187.626C109.609 187.626 108.529 186.276 108.634 184.477L102.965 183.277L97.6112 186.539C96.677 187.232 96.0018 188.217 95.6933 189.338C95.3848 190.46 95.4607 191.652 95.909 192.725L96.6214 194.292V194.285ZM138.665 209.822C139.723 209.777 140.907 209.762 142.189 209.762C142.189 209.762 145.249 200.801 145.421 200.516C143.149 199.456 140.932 198.282 138.778 196.999C139.685 198.364 141.89 199.916 141.455 201.116L138.665 209.822Z" fill="#FFFFFE"/>
<path fill-rule="evenodd" clip-rule="evenodd" d="M167.777 156.682H83.2318V188.543C83.2318 201.575 92.6423 209.726 106.537 209.726C118.137 209.726 121.196 210.176 125.508 214.473C128.485 211.496 130.944 210.394 136.006 209.974L136.118 209.486L138.78 201.23C138.63 201.043 134.281 196.086 134.281 196.086C132.557 196.664 131.102 196.761 128.657 196.761C126.16 196.761 123.333 196.461 120.267 195.892C119.979 195.823 119.685 195.788 119.389 195.787C119.014 195.787 118.992 195.817 118.887 196.004L118.362 196.881L117.387 198.486L115.565 198.059L107.452 196.146L106.335 197.984L106.507 198.186L107.489 199.273L107.054 200.698C106.454 202.55 104.52 204.717 103.928 205.317L101.903 207.492L100.051 205.16L98.6636 203.412C97.2014 201.778 96.864 199.273 97.6888 196.649C97.6647 196.666 97.6361 196.677 97.6063 196.679L95.3193 197.631L94.292 195.382L93.5646 193.799C92.8664 192.181 92.7407 190.372 93.2083 188.672C93.6758 186.973 94.7087 185.483 96.1366 184.449L102.66 180.752L108.884 181.974C109.034 181.374 109.259 179.245 109.431 178.698C109.311 178.683 109.199 178.66 109.079 178.66L105.495 179.995L102.045 177.61C102.045 177.61 100.696 176.306 101.918 175.001L105.255 169.924L96.7815 159.277L109.806 164.63L110.676 163.558L112.431 161.444L114.425 163.348C114.95 163.861 115.314 164.515 115.475 165.23C119.059 166.633 125.493 170.764 126.063 177.483L124.053 178.285V178.338C124.511 178.885 124.893 179.11 125.013 179.132L134.311 180.047C134.551 180.002 134.836 179.897 135.166 179.807C136.328 179.41 138.06 178.833 140.115 178.833C141.795 178.833 143.414 179.222 144.967 179.957C145.544 179.732 146.241 179.575 147.066 179.522L147.516 179.507C152.487 179.507 154.962 183.234 156.949 186.211C157.279 186.728 157.609 187.208 157.954 187.688C159.693 190.148 161.966 193.739 162.055 193.897L163.083 195.494L161.823 196.964C160.863 198.089 159.401 199.401 156.912 199.401C156.348 199.396 155.785 199.338 155.232 199.228C154.722 199.13 154.224 198.977 153.747 198.771C153.671 199.3 153.583 199.828 153.485 200.353L151.858 208.879C161.606 206.479 167.799 199.101 167.799 188.543L167.777 156.682ZM83.2318 154.118H148.993C145.709 150.713 145.761 146.417 146.594 143.62C145.707 143.194 144.882 142.649 144.142 142C141.57 143.897 133.726 149.619 131.679 151.058L131.237 151.358L105.427 146.679H104.902C104.287 146.679 103.38 146.657 102.39 146.529C102.284 147.003 102.043 147.436 101.696 147.776C101.349 148.116 100.911 148.348 100.435 148.444C99.9594 148.54 99.4657 148.496 99.0141 148.317C98.5626 148.138 98.1726 147.832 97.8913 147.437C97.6936 147.166 97.552 146.859 97.4747 146.533C97.3975 146.208 97.3861 145.87 97.4413 145.539L97.5388 144.977C94.8844 143.102 92.4174 138.903 93.5122 134.479L93.6171 134.014L93.9921 133.744C94.3704 133.486 94.7608 133.246 95.1618 133.024L93.2872 132.725C92.9543 132.667 92.6568 132.483 92.4579 132.21C92.2591 131.937 92.1746 131.597 92.2224 131.262C92.3424 130.557 92.9948 130.063 93.6921 130.19L98.1537 130.895L98.5661 115.141L105.21 108.092L109.364 116.843L104.985 132.005L108.929 132.627C109.266 132.682 109.567 132.869 109.767 133.146C109.966 133.423 110.048 133.767 109.994 134.104C109.945 134.403 109.792 134.674 109.561 134.87C109.33 135.065 109.037 135.171 108.734 135.169L108.532 135.162L105.315 134.637C105.36 134.742 105.42 134.794 105.465 134.899C105.823 135.52 106.362 136.017 107.009 136.324L126.678 136.646C127.51 135.829 129.572 133.804 131.702 131.66C129.848 130.979 128.221 129.796 127.002 128.242C125.784 126.689 125.022 124.826 124.803 122.864C122.104 121.709 120.229 119.985 119.194 117.735C117.935 114.946 118.385 112.156 118.722 110.799C116.097 109.847 113.338 108.092 110.519 105.288H80.8848C82.1595 108.707 83.2318 112.411 83.2318 116.093V154.11V154.118Z" fill="#FFE52B"/>
<path fill-rule="evenodd" clip-rule="evenodd" d="M110.299 170.497C110.185 170.488 110.07 170.502 109.961 170.538C109.853 170.574 109.752 170.631 109.666 170.707C109.58 170.782 109.51 170.874 109.461 170.978C109.411 171.081 109.382 171.193 109.377 171.307C109.367 171.421 109.382 171.536 109.418 171.645C109.455 171.754 109.513 171.854 109.589 171.939C109.666 172.025 109.759 172.094 109.863 172.143C109.967 172.191 110.079 172.218 110.194 172.222C110.423 172.236 110.649 172.16 110.823 172.01C110.996 171.86 111.105 171.648 111.124 171.419C111.136 171.188 111.056 170.961 110.902 170.788C110.747 170.615 110.53 170.511 110.299 170.497ZM149.486 237.308L145.624 226.661C150.221 225.258 158.117 222.244 161.663 220.242L159.301 227.988L167.302 230.65C162.458 233.079 156.594 235.351 149.486 237.301V237.308ZM125.506 246.869C116.2 246.869 105.582 244.724 102.448 243.607L107.202 230.725C111.146 231.88 119.35 233.102 125.311 233.064H125.686C131.639 233.102 139.835 231.872 143.802 230.725L148.549 243.607C145.414 244.732 134.796 246.869 125.506 246.869ZM83.6944 230.65L91.7027 227.988L89.3332 220.242C92.865 222.244 100.783 225.266 105.365 226.661L101.503 237.308C94.4172 235.359 88.5309 233.079 83.6944 230.65ZM167.662 228.288L162.788 226.413L164.138 221.374L165.615 215.878C165.615 215.878 156.992 220.572 144.822 224.089C141.372 225.078 138.763 225.536 138.763 225.536V229.278C138.763 229.278 132.254 230.402 125.686 230.402H125.311C118.727 230.402 112.233 229.278 112.233 229.278V225.528C112.233 225.528 109.617 225.078 106.167 224.089C94.0123 220.564 85.389 215.878 85.389 215.878L86.8437 221.374L88.2235 226.413L83.3345 228.288L77.9131 230.312C84.1218 233.319 92.73 237.691 100.603 239.85L98.7513 244.934C98.7513 244.934 108.739 249.493 125.378 249.538V249.546H125.603V249.538C142.265 249.493 152.253 244.934 152.253 244.934L150.378 239.85C158.259 237.691 166.882 233.327 173.061 230.312L167.662 228.288ZM105.162 23.1526L107.374 23.3925L108.327 21.368L111.116 15.3917L116.29 18.0761L118.3 19.1034L125.483 11.9649L131.085 17.5138L132.689 19.1034L134.699 18.0761L139.843 15.3917L142.677 21.368L143.615 23.3925L145.827 23.1526L147.941 22.9052C146.974 25.0872 146.261 27.1643 145.744 28.8889C140.158 25.7621 132.899 23.9924 125.491 23.9924C118.112 23.9924 110.854 25.7621 105.245 28.8889C104.64 26.8508 103.909 24.8524 103.055 22.9052L105.155 23.1526H105.162ZM125.483 27.1043C135.404 27.1043 143.33 30.4036 147.716 33.9054C147.716 33.9054 149.021 26.0545 153.46 19.1334L145.474 20.0332L141.297 11.1476L133.274 15.2942L125.483 7.58582L117.722 15.2942L109.684 11.1476L105.515 20.0407L97.529 19.1259C101.976 26.0545 103.273 33.8979 103.273 33.8979C107.682 30.3961 115.585 27.1043 125.483 27.1043ZM251.142 159.16C251.142 159.16 247.693 165.181 239.775 165.181H239.677C230.169 165.121 226.33 159.309 226.33 159.309C226.33 159.309 226.885 166.868 223.466 177.073C219.341 189.371 223.496 198.144 223.496 198.144C223.496 198.144 221.276 198.751 218.719 198.751C217.744 198.751 216.724 198.654 215.757 198.399C207.816 196.517 205.837 189.273 205.837 189.273C205.837 189.273 206.572 213.726 178.1 213.726H177.875C177.875 213.726 180.387 210.314 181.129 200.476C182.479 182.33 194.746 179.833 194.746 179.833C194.746 179.833 188.2 179.008 185.358 176.466C180.927 172.439 181.234 167.783 181.234 167.783C191.252 167.64 197.821 164.228 202.822 158.432C206.045 154.724 208.22 150.222 209.121 145.392C209.121 145.392 203.737 150.289 193.322 150.289C192.407 150.289 191.432 150.244 190.427 150.146C185.493 149.749 182.089 146.607 182.089 146.607C192.932 139.641 200.535 127.486 193.794 109.19C188.395 94.5304 175.408 83.5751 162.338 75.3268C157.989 72.6049 155.56 69.5755 155.56 66.9735C155.56 60.8473 164.258 60.6524 167.827 56.5357C171.951 51.7517 169.364 43.9908 165.795 39.3193C165.795 39.3193 166.995 39.0718 168.892 39.0718C172.656 39.0718 179.165 40.0166 184.519 45.5805C191.62 52.9439 188.673 60.9673 188.673 60.9673L190.577 61.3422C191.717 61.5747 192.849 61.6272 194.027 61.6871L194.791 61.6946C205.117 61.6946 209.728 50.8819 209.728 50.8819C209.728 50.8819 220.706 64.4091 204.547 75.0119C201.765 76.819 200.535 78.5062 200.858 80.2908L201.113 81.4681L202.26 81.6705C213.972 84.8574 219.904 92.9557 227.14 102.149C238.133 116.148 253.684 116.598 255.596 116.598H255.806C255.806 116.598 252.26 127.823 241.799 127.823C241.627 127.823 241.477 127.823 241.304 127.808C236.505 127.636 234.031 125.791 234.031 125.791C234.031 125.791 232.164 151.264 251.142 159.16ZM241.799 131.258C254.622 131.258 258.911 118.188 259.091 117.633L260.515 113.022L255.716 113.172H255.701C253.999 113.172 239.857 112.797 229.832 100.027L228.879 98.842C222.326 90.4962 216.11 82.5553 204.997 78.9336C205.441 78.5448 205.915 78.1912 206.414 77.8763C212.308 73.9921 215.742 69.2756 216.597 63.7942C217.864 55.5534 212.608 48.9848 212.383 48.7148L208.814 44.2907L206.579 49.5396C206.429 49.8621 202.68 58.2603 194.791 58.2603H194.207C193.667 58.2379 193.149 58.2154 192.639 58.1704C192.917 54.4211 192.234 48.6323 186.986 43.1885C180.679 36.6423 172.941 35.66 168.892 35.66C166.732 35.66 165.293 35.93 165.135 35.945L159.744 37.0172L163.065 41.4038C165.675 44.7931 168.044 51.0393 165.24 54.3012C164.34 55.3509 162.496 56.1833 160.733 57.0306C157.104 58.7028 152.14 61.0423 152.14 66.9735C152.14 70.8128 155.117 74.8394 160.516 78.2512C176.473 88.3066 186.326 98.8045 190.577 110.39C197.161 128.206 188.575 138.374 180.229 143.728L176.495 146.135L179.772 149.149C180.214 149.539 184.211 153.071 190.127 153.581C191.252 153.656 192.324 153.716 193.329 153.716C197.116 153.716 200.348 153.116 202.972 152.321C202.188 153.69 201.274 154.981 200.243 156.175C195.481 161.709 189.618 164.228 181.182 164.363L178.047 164.408L177.807 167.558C177.777 168.195 177.545 174.036 183.056 179C183.904 179.765 184.923 180.403 185.996 180.913C182.247 184.287 178.452 190.166 177.717 200.229C177.095 208.627 175.093 211.739 175.071 211.776L171.606 217.07L177.867 217.153C188.208 217.153 196.126 214.303 201.608 208.634C204.447 205.657 206.565 202.068 207.801 198.144C210.846 200.74 214.717 202.165 218.719 202.163C221.643 202.163 224.088 201.541 224.358 201.481L228.355 200.416L226.592 196.682C226.457 196.382 223.128 188.883 226.712 178.183C228.257 173.557 229.044 169.417 229.427 166.186C231.946 167.505 235.313 168.585 239.67 168.6C249.568 168.6 253.924 161.199 254.119 160.892L256.069 157.487L252.455 156.003C240.667 151.099 238.057 137.931 237.533 130.808C238.605 131.01 239.82 131.198 241.192 131.235L241.799 131.258Z" fill="#1A1919"/>
<path fill-rule="evenodd" clip-rule="evenodd" d="M227.401 75.3555C229.785 75.3555 232.575 76.1728 235.199 78.8948C243.462 87.293 251.148 87.7654 251.148 87.7654C249.754 90.8623 245.704 93.5842 241.513 93.5842C240.546 93.5842 239.563 93.4343 238.611 93.0968C232.92 91.1772 230.888 82.6365 220.907 77.3201C220.907 77.3201 223.682 75.3555 227.401 75.3555ZM219.28 80.3495C224.056 82.8989 226.846 86.3257 229.29 89.3551C231.69 92.317 233.962 95.1664 237.539 96.3512C238.798 96.7861 240.141 96.996 241.513 96.996C246.859 96.996 252.236 93.7117 254.275 89.1676L256.322 84.6236L251.366 84.3236C251.133 84.3236 244.752 83.7313 237.659 76.4728C234.734 73.4884 231.202 71.9287 227.401 71.9287C222.752 71.9287 219.302 74.2532 218.927 74.4932L214.368 77.71L219.28 80.3495ZM221.522 125.723V125.895C218.643 102.635 201.786 85.8383 183.017 75.6254C181.293 74.6956 179.681 73.9008 178.128 73.1509C183.835 74.0358 193.035 74.1407 200.144 67.977C200.144 67.977 189.271 75.9779 167.023 68.7044C173.172 72.7085 185.147 78.3624 196.08 87.5105C223.397 111.566 203.856 135.021 203.856 135.021C213.679 124.755 214.083 113.763 211.189 104.779C216.363 113.403 219.662 123.863 219.152 136.768C218.403 155.251 208.257 171.238 197.587 184.083C192.458 190.307 191.318 197.97 191.318 197.97C191.318 197.97 193.388 191.214 199.319 184.263C210.754 170.841 220.54 156.916 221.814 136.835C222.999 140.487 227.873 150.61 235.597 154.427C235.597 154.427 225.886 148.563 221.522 125.723ZM72.9027 213.724C44.431 213.724 45.1584 189.272 45.1584 189.272C45.1584 189.272 43.1638 196.515 35.2379 198.398C34.2698 198.641 33.2744 198.76 32.2761 198.75C29.7266 198.75 27.507 198.15 27.507 198.15C27.507 198.15 31.6537 189.362 27.522 177.072C24.1178 166.874 24.6726 159.308 24.6726 159.308C24.6726 159.308 20.8409 165.119 11.3254 165.179H11.2279C3.31705 165.179 -0.139737 159.158 -0.139737 159.158C18.8313 151.262 16.9717 125.79 16.9717 125.79C16.9717 125.79 14.4972 127.635 9.69823 127.815H9.19583C-1.272 127.815 -4.81877 116.597 -4.81877 116.597H-4.60132C-2.66672 116.597 12.8626 116.147 23.8478 102.147C31.0838 92.9469 37.0226 84.856 48.7127 81.6767L49.8899 81.4667L50.1374 80.2895C50.4673 78.5048 49.2376 76.8177 46.4631 75.0106C30.304 64.4078 41.2742 50.888 41.2742 50.888C41.2742 50.888 45.8633 61.6933 56.2186 61.6933L56.9685 61.6858C58.1382 61.6258 59.2855 61.5733 60.4177 61.3334L62.3223 60.966C62.3223 60.966 59.368 52.9426 66.4915 45.5791C71.8454 40.0153 78.3465 39.0705 82.1033 39.0705C84.0154 39.0705 85.1926 39.3179 85.1926 39.3179C81.6384 43.9895 79.0589 51.7504 83.168 56.5344C86.7373 60.651 95.428 60.846 95.428 66.9722C95.428 69.5742 93.006 72.6036 88.6644 75.3255C75.5796 83.5738 62.5998 94.5215 57.2009 109.196C50.4673 127.492 58.0707 139.64 68.921 146.613C68.921 146.613 65.5092 149.748 60.5752 150.145C59.6082 150.238 58.6373 150.286 57.6658 150.288C47.258 150.288 41.8741 145.399 41.8741 145.399C41.8741 145.399 42.7739 152.155 48.1578 158.438C53.1817 164.227 59.7429 167.639 69.7533 167.781C69.7533 167.781 70.0758 172.43 65.6442 176.465C62.8023 179.014 56.2561 179.839 56.2561 179.839C56.2561 179.839 68.5311 182.328 69.8808 200.475C70.6156 210.313 73.1051 213.724 73.1051 213.724H72.9027ZM75.9245 211.775C75.917 211.737 73.9299 208.625 73.2926 200.227C72.5427 190.164 68.7485 184.285 64.9918 180.911C66.0791 180.401 67.0914 179.764 67.9312 178.999C73.4426 174.035 73.2101 168.201 73.1726 167.556L72.9627 164.407L69.8058 164.362C61.3925 164.227 55.5213 161.708 50.7597 156.174C49.7333 154.976 48.8196 153.686 48.0303 152.32C50.6548 153.122 53.8641 153.714 57.6658 153.714C58.6781 153.714 59.7429 153.654 60.8602 153.579C64.6873 153.197 68.306 151.653 71.2305 149.155L74.5073 146.133L70.7731 143.734C62.4048 138.372 53.8491 128.212 60.4252 110.388C64.6769 98.8031 74.5073 88.3128 90.494 78.2499C95.8929 74.8381 98.8473 70.8114 98.8473 66.9722C98.8473 61.0409 93.8983 58.7014 90.2691 57.0293C88.4994 56.182 86.6548 55.3421 85.7625 54.2998C82.9506 51.038 85.3126 44.7918 87.9296 41.4025L91.2739 37.0159L85.8525 35.9436C85.7025 35.9211 84.2778 35.6587 82.1033 35.6587C78.0616 35.6587 70.3307 36.641 64.032 43.1871C58.7756 48.631 58.0857 54.4273 58.3557 58.169C57.8458 58.214 57.3359 58.2365 56.796 58.259H56.2186C48.3003 58.259 44.566 49.8608 44.4236 49.5383L42.1965 44.2894L38.5973 48.7135C38.3948 48.9834 33.1234 55.5521 34.4131 63.7929C35.2604 69.2668 38.6947 73.9908 44.5885 77.875C45.2334 78.2874 45.6758 78.6398 45.9982 78.9323C34.8705 82.554 28.6693 90.4949 22.1157 98.8406L21.1709 100.025C11.1529 112.795 -3.02664 113.178 -4.72129 113.178L-9.55029 113.028L-8.0806 117.632C-7.90813 118.187 -3.63402 131.256 9.19583 131.256L9.81071 131.234C11.1679 131.196 12.3902 131.009 13.4699 130.799C12.9451 137.923 10.3206 151.097 -1.46696 155.994L-5.06622 157.494L-3.11662 160.89C-2.93666 161.198 1.44244 168.599 11.3554 168.599C14.9034 168.634 18.4073 167.811 21.5683 166.199C21.9507 169.424 22.7455 173.555 24.2902 178.182C27.8745 188.875 24.5377 196.38 24.4102 196.68L22.6406 200.415L26.6372 201.472C26.9072 201.547 29.3667 202.162 32.2761 202.162C36.2791 202.172 40.153 200.746 43.1938 198.143C44.2811 201.494 46.1482 205.281 49.38 208.633C54.8839 214.294 62.7948 217.151 73.1276 217.151L79.3888 217.069L75.9245 211.775Z" fill="#1A1919"/>
<path fill-rule="evenodd" clip-rule="evenodd" d="M15.7929 78.8988C18.4323 76.1769 21.2142 75.3521 23.6137 75.3521C27.303 75.3521 30.0999 77.3242 30.0999 77.3242C20.127 82.6481 18.0724 91.1813 12.3736 93.1084C11.4454 93.4301 10.4689 93.5899 9.48665 93.5808C5.29502 93.5808 1.23836 90.8664 -0.141358 87.7695C-0.141358 87.7695 7.53706 87.2971 15.7929 78.8988ZM9.48665 97.0001C10.8589 97.0001 12.2011 96.7901 13.4758 96.3552C17.0451 95.1705 19.3246 92.3286 21.7241 89.3592C24.1761 86.3373 26.9356 82.9105 31.7196 80.361L36.6385 77.7141L32.0645 74.4897C31.6896 74.2573 28.2628 71.9403 23.6137 71.9403C19.8045 71.9403 16.2653 73.4925 13.3484 76.4768C6.24732 83.7428 -0.118864 84.3277 -0.351315 84.3352L-5.30029 84.6276L-3.27571 89.1792C-1.22114 93.7158 4.14775 97.0001 9.48665 97.0001ZM31.8545 136.772C31.3296 123.867 34.629 113.407 39.8029 104.783C36.9235 113.767 37.3134 124.759 47.1514 135.032C47.1514 135.032 27.5954 111.562 54.9273 87.522C65.86 78.3664 77.82 72.7126 83.9688 68.7084C61.7284 75.9819 50.8631 67.9736 50.8631 67.9736C57.9641 74.1448 67.1647 74.0473 72.8711 73.1475C71.3264 73.9049 69.7067 74.6922 67.9821 75.6295C49.2134 85.8349 32.3644 102.639 29.47 125.899V125.727C25.1134 148.567 15.4104 154.431 15.4104 154.431C23.1338 150.607 27.9928 140.484 29.1776 136.839C30.4673 156.92 40.2453 170.852 51.6729 184.267C57.6117 191.218 59.6963 197.974 59.6963 197.974C59.6963 197.974 58.5415 190.318 53.3901 184.087C42.7423 171.242 32.6044 155.256 31.8545 136.772ZM119.069 89.7041V94.3232C120.659 92.3811 123.718 92.7785 123.718 92.7785V99.4296C123.718 99.4296 123.621 102.699 122.458 104.116H129.102C127.947 102.699 127.835 99.4296 127.835 99.4296V92.7785C127.835 92.7785 130.909 92.3811 132.484 94.3232V89.7041H119.062H119.069ZM116.22 62.3497C118.342 64.0369 119.571 64.3218 119.609 64.3443L120.434 64.7268V60.3852L112.635 57.1008C112.635 57.1008 112.703 59.6203 116.22 62.3497ZM134.771 62.3497C138.295 59.6203 138.37 57.1008 138.37 57.1008L130.564 60.3852V64.7343L131.389 64.3443C131.426 64.3218 132.649 64.0369 134.771 62.3497Z" fill="#1A1919"/>
<path fill-rule="evenodd" clip-rule="evenodd" d="M125.499 50.7806L106.7 43.3421C108.298 39.5479 115.669 36.3235 125.499 36.316C135.337 36.3235 142.708 39.5479 144.305 43.3421L125.499 50.7806ZM139.514 74.0932L126.879 80.7669V53.7424L144.028 47.9086L139.514 74.0782V74.0932ZM147.342 81.2618L153.116 84.6211H153.198L154.653 85.4684C151.391 86.3682 148.894 88.0104 146.802 90.1549L146.577 90.3799C146.084 90.9063 145.611 91.4516 145.16 92.0145L144.897 92.3595C144.448 92.9368 144.02 93.5292 143.623 94.1441L143.405 94.4515C142.919 95.194 142.456 95.9517 142.018 96.7236C137.894 103.825 131.333 108.069 125.499 108.084C119.665 108.069 113.097 103.825 108.987 96.7236C108.551 95.9663 108.093 95.2211 107.615 94.489L107.345 94.0916C106.953 93.5126 106.548 92.9425 106.13 92.382C106.025 92.232 105.928 92.1195 105.823 91.992C105.383 91.4451 104.925 90.9125 104.451 90.3949C104.353 90.3199 104.286 90.2224 104.196 90.1399C102.053 87.8964 99.3388 86.2811 96.345 85.4684L97.8147 84.6211H97.8747L103.671 81.2618L109.602 77.85L125.469 86.5032L125.499 86.4732L125.544 86.5032L141.403 77.85L147.342 81.2618ZM170.137 105.287C168.84 108.706 167.768 112.41 167.768 116.092L167.783 139.862C162.826 139.037 162.234 133.683 162.219 133.451L162.129 132.364L161.057 132.266C159.238 132.106 157.539 131.294 156.273 129.979C153.836 127.542 153.836 123.598 153.836 123.561C153.806 123.763 151.166 127.46 154.226 131.509C155.515 133.219 157.39 134.276 159.804 134.688C160.374 137.65 162.579 141.842 167.783 142.487V154.109H153.153C146.405 150.352 149.262 143.739 149.397 143.454L149.966 142.194L148.677 141.707C141.366 138.992 143.383 131.689 143.48 131.374L143.78 130.309L142.775 129.844C136.747 127.04 137.564 119.496 137.646 119.181C135.787 120.689 135.119 123.755 136.394 126.777C135.704 127.572 134.775 128.524 133.762 129.574C132.001 129.19 130.415 128.236 129.25 126.86C128.084 125.485 127.404 123.764 127.314 121.963L127.306 121.079L126.481 120.764C124.044 119.864 122.372 118.499 121.54 116.677C120.617 114.66 120.94 112.553 121.195 111.525C122.596 111.816 124.023 111.967 125.454 111.975H125.551C126.279 111.975 126.991 111.93 127.696 111.863C131.595 111.473 135.944 109.801 140.488 105.287H170.137ZM151.856 208.878L153.491 200.352L153.753 198.777C154.762 199.173 155.834 199.383 156.917 199.4C159.407 199.4 160.862 198.08 161.829 196.963L163.074 195.501L162.054 193.896C161.964 193.739 159.692 190.147 157.952 187.687C157.607 187.201 157.274 186.706 156.955 186.203C154.968 183.233 152.486 179.506 147.507 179.506L147.065 179.521C146.347 179.56 145.64 179.704 144.965 179.949C143.45 179.224 141.793 178.845 140.113 178.839C138.424 178.88 136.754 179.204 135.172 179.799C134.842 179.896 134.542 180.001 134.31 180.046L125.012 179.132C124.892 179.102 124.517 178.877 124.052 178.337V178.284L126.061 177.482C125.499 170.763 119.058 166.632 115.474 165.229C115.315 164.511 114.95 163.854 114.424 163.34L112.429 161.443L110.675 163.55L109.812 164.63L96.7799 159.268L105.253 169.923L101.916 175C100.687 176.297 102.044 177.609 102.044 177.609L105.493 179.994L109.077 178.652C109.197 178.652 109.302 178.682 109.43 178.697C109.257 179.244 109.032 181.381 108.882 181.973L102.666 180.751L96.1425 184.448C92.7757 186.922 92.3183 191.002 93.5706 193.798L94.2904 195.388L95.3177 197.63L97.6047 196.685C97.6422 196.67 97.6722 196.663 97.6947 196.64C96.8699 199.272 97.2073 201.769 98.6695 203.412L100.057 205.159L101.901 207.498L103.926 205.316C104.526 204.716 106.46 202.549 107.053 200.69L107.488 199.272L106.505 198.185L106.34 197.983L107.45 196.146L115.564 198.065L117.393 198.485L118.368 196.873L118.893 196.003C118.99 195.816 119.013 195.786 119.388 195.786C119.68 195.786 119.965 195.816 120.273 195.891C123.039 196.437 125.851 196.725 128.671 196.753C131.093 196.753 132.555 196.663 134.28 196.086C134.28 196.086 138.636 201.035 138.786 201.229L136.117 209.478L135.997 209.973C130.95 210.385 128.491 211.495 125.514 214.472C121.195 210.183 118.143 209.725 106.543 209.725C92.6483 209.725 83.2302 201.574 83.2302 188.535V156.681H167.783L167.798 188.535C167.798 199.1 161.604 206.471 151.856 208.878ZM99.7793 190.867L100.222 191.969C99.9218 192.929 96.6224 194.293 96.6224 194.293L95.9176 192.726C95.4674 191.652 95.3904 190.458 95.699 189.335C96.0076 188.213 96.6839 187.226 97.6197 186.533L102.966 183.271L108.642 184.47C108.53 186.278 109.61 187.627 109.61 187.627L103.671 186.488L100.109 188.947C99.5093 189.367 99.4644 190.147 99.7793 190.867ZM150.956 199.865L149.134 209.395C147.964 209.56 146.735 209.65 145.475 209.695L147.394 200.547C147.964 197.818 140.676 196.97 137.069 191.624C135.307 193.604 132 194.196 128.671 194.196C125.626 194.196 122.597 193.709 120.745 193.341C120.299 193.264 119.848 193.221 119.395 193.214C118.323 193.214 117.356 193.544 116.681 194.676L116.156 195.576L106.213 193.229L103.738 197.33C103.394 197.998 103.364 198.553 103.926 199.175L104.601 199.91C104.136 201.357 102.066 203.554 102.066 203.554L100.589 201.702C99.4194 200.397 99.6143 197.998 100.829 195.778L104.773 189.104L113.194 190.327L111.889 187.335C110.127 183.383 112.812 178.359 113.097 175.465C112.999 176.342 112.197 176.537 111.267 176.537C110.412 176.537 109.467 176.38 108.837 176.38C108.59 176.38 108.373 176.402 108.26 176.485L105.98 177.872L104.181 176.282C103.963 175.982 103.896 175.255 104.421 174.715L108.59 170.036L103.671 164.277L110.555 167.749L112.662 165.192C113.239 165.762 112.984 167.239 112.984 167.239C115.136 167.299 121.172 170.636 121.487 178.434C121.51 178.674 121.51 178.937 121.51 179.199L121.667 179.454C122.095 180.046 123.272 181.554 124.764 181.688L134.287 182.633H134.325C135.374 182.633 137.451 181.404 140.113 181.404C141.576 181.404 143.188 181.778 144.912 182.866C144.912 182.866 145.782 182.176 147.184 182.101C147.289 182.086 147.409 182.086 147.507 182.086C151.781 182.086 153.558 185.955 155.853 189.172C157.577 191.616 159.879 195.246 159.879 195.246C159.032 196.258 158.237 196.82 156.91 196.82C156.497 196.822 156.085 196.782 155.68 196.7C151.106 195.853 150.439 186.428 147.829 185.678C147.692 185.642 147.551 185.624 147.409 185.625C146.57 185.625 146.202 186.375 146.202 186.375C147.402 189.592 146.697 190.889 147.987 193.371C148.947 195.208 150.649 196.715 151.354 197.435C151.354 197.435 151.166 198.83 150.956 199.872V199.865ZM142.191 209.763C140.916 209.763 139.731 209.778 138.666 209.823L141.456 201.117C141.891 199.91 139.686 198.358 138.779 196.993C140.151 197.863 143.713 199.767 145.43 200.517C144.317 203.587 143.237 206.669 142.191 209.763ZM100.709 131.314L101.107 116.182L104.496 112.59L106.625 117.059L102.426 131.584L100.702 131.321L100.709 131.314ZM103.146 136.008C103.661 136.994 104.44 137.817 105.396 138.385C105.369 139.823 105.232 141.257 104.983 142.674C104.908 143.004 104.833 143.311 104.736 143.619C104.691 143.814 104.631 143.971 104.593 144.099C103.551 144.099 101.519 143.971 99.8618 143.364C98.0172 142.689 95.2652 139.3 95.9026 135.566C96.6974 135.078 98.542 134.036 100.274 134.036C101.601 134.036 102.509 134.666 103.146 136.008ZM142.408 140.072C139.806 141.999 133.087 146.911 130.65 148.62L107.195 144.391L107.36 143.769C107.66 142.547 107.983 140.882 107.998 138.925L127.711 139.24L128.086 138.865C128.386 138.565 134.632 132.514 137.811 129.042C138.569 129.994 139.514 130.894 140.758 131.689C140.338 134.013 140.511 137.298 142.408 140.072ZM110.517 105.287C113.344 108.091 116.096 109.838 118.72 110.798C118.383 112.148 117.933 114.952 119.193 117.734C120.228 119.984 122.102 121.708 124.809 122.863C125.109 125.638 126.856 129.814 131.708 131.659C129.578 133.803 127.509 135.828 126.684 136.638L107.008 136.33C106.358 136.02 105.819 135.517 105.463 134.891C105.426 134.793 105.358 134.741 105.313 134.636L108.53 135.161L108.732 135.168C109.035 135.17 109.328 135.064 109.559 134.869C109.79 134.673 109.944 134.402 109.992 134.103C110.046 133.767 109.966 133.424 109.768 133.147C109.57 132.87 109.27 132.683 108.935 132.626L104.983 131.996L109.362 116.842L105.216 108.091L98.5645 115.14L98.1596 130.894L93.6905 130.182C93.0007 130.047 92.3408 130.557 92.2133 131.254C92.1634 131.591 92.2477 131.935 92.4482 132.211C92.6486 132.487 92.9492 132.674 93.2856 132.731L95.1602 133.016C94.4854 133.398 94.043 133.706 93.9905 133.743L93.6156 134.013L93.5106 134.478C92.4233 138.902 94.8828 143.101 97.5372 144.976L97.4398 145.538C97.3348 146.213 97.4848 146.888 97.8897 147.436C98.1201 147.768 98.4286 148.039 98.7881 148.225C99.1476 148.41 99.5472 148.505 99.9518 148.5C100.52 148.496 101.07 148.299 101.512 147.942C101.955 147.586 102.264 147.09 102.389 146.536C103.379 146.648 104.286 146.678 104.901 146.678H105.433L131.235 151.35L131.678 151.057C133.732 149.618 141.576 143.896 144.14 141.999C144.852 142.607 145.64 143.161 146.592 143.619C145.76 146.416 145.707 150.712 148.992 154.117H83.2302V116.1C83.2302 112.41 82.1579 108.706 80.8832 105.287H110.517ZM106.963 47.9236L124.127 53.7499V80.7594L111.492 74.0857L106.963 47.9161V47.9236ZM148.834 44.6618C148.834 38.0707 137.759 32.1394 125.536 32.1394H125.461C113.239 32.1394 102.171 38.0707 102.171 44.6618L102.411 46.2815L107.293 74.3482L102.389 77.1976L89.7089 84.6211H89.7539C89.7539 84.6211 86.9045 86.0908 85.5772 86.9906C80.7482 90.3499 79.7209 95.2539 82.5254 97.2784C83.2152 93.2818 86.3721 89.1051 92.2733 89.1051C96.5325 89.1051 99.7718 91.3097 102.396 94.6015C103.071 95.4338 103.708 96.3261 104.301 97.2784C105.036 98.4857 105.778 99.5505 106.505 100.57H73.8271C76.2267 105.407 78.5137 110.528 78.5137 116.092V188.542C78.5137 206.073 91.9734 214.442 106.535 214.442C117.791 214.442 119.305 213.932 125.514 220.126C131.693 213.932 133.215 214.442 144.478 214.442C159.047 214.442 172.484 206.073 172.484 188.542V116.092C172.484 110.528 174.771 105.407 177.186 100.57H144.493C145.227 99.5505 145.962 98.4857 146.697 97.2784C147.297 96.3261 147.934 95.4338 148.594 94.6015C151.234 91.2947 154.473 89.1051 158.732 89.1051C164.633 89.1051 167.783 93.2818 168.48 97.2784C171.285 95.2539 170.272 90.3499 165.406 86.9906C164.116 86.0908 161.252 84.6211 161.252 84.6211H161.304L148.594 77.1976L143.72 74.3482L148.594 46.2815L148.834 44.6618Z" fill="#1A1919"/>
</g>
</svg>
