<svg width="172" height="287" viewBox="0 0 172 287" fill="none" xmlns="http://www.w3.org/2000/svg">
<path d="M44.4474 67.1306C22.872 104.667 5.27099 135.453 5.39716 135.579C5.52333 135.642 23.1243 127.378 44.6366 117.221L83.6868 98.6735L121.917 116.716C142.924 126.684 160.715 135.074 161.346 135.453C162.418 135.957 162.355 135.705 160.967 133.308C157.245 126.873 84.9485 1.07961 84.3177 0.0702209C83.813 -0.876068 76.6212 11.1734 44.4474 67.1306Z" fill="#1DB663"/>
<path d="M50.625 135.328C32.4562 143.971 16.1801 151.667 14.5398 152.424L11.5117 153.875L47.3445 170.845C67.0273 180.182 83.4928 187.815 83.8082 187.815C84.9437 187.752 154.464 154.506 154.654 153.938C154.78 153.623 147.525 149.901 138.567 145.674C129.609 141.447 113.585 133.877 102.986 128.83L83.682 119.683L50.625 135.328Z" fill="#1DB663"/>
<path d="M39.2033 244.405C63.3652 286.736 83.4266 321.244 83.6789 321.181C84.2467 320.991 171.999 168.008 171.684 167.756C171.558 167.692 151.938 176.966 127.965 188.322C104.056 199.74 84.1205 209.077 83.6789 209.077C83.2373 209.077 64.627 200.371 42.3576 189.773C20.0252 179.111 0.342383 169.774 -1.48711 168.954L-4.76758 167.503L39.2033 244.405Z" fill="#1DB663"/>
</svg>
