<svg width="237" height="243" viewBox="0 0 237 243" fill="none" xmlns="http://www.w3.org/2000/svg">
<path d="M-3.09557 24.7629L-2.92749 49.5818L34.7771 49.7498L72.4256 49.8619V65.7729V81.7399L69.5123 82.02C67.8876 82.1881 64.1339 82.4682 61.2207 82.6363C46.2061 83.5887 28.1662 85.9417 13.5998 88.855C-32.3964 98.043 -46.8508 113.17 -21.8638 125.943C-5.11245 134.515 24.3565 140.51 63.7418 143.423C68.0557 143.703 71.7533 143.983 72.0334 143.983C72.2575 143.983 72.4256 166.393 72.4256 193.789C72.4256 240.794 72.4816 243.651 73.378 243.931C83.2944 246.788 112.819 247.124 125.817 244.491L127.33 244.155V194.125V144.095L133.1 143.759C181.449 140.622 216.913 132.61 230.807 121.685C233.776 119.276 236.017 115.579 236.017 113.002C236.017 104.822 222.74 97.0346 198.481 91.096C180.105 86.614 160.384 83.8688 132.82 82.076L127.33 81.6839V65.7729V49.8619H164.866H202.403V24.9309V0H99.5975H-3.20761L-3.09557 24.7629ZM72.4256 105.774V124.207L79.8769 124.991C89.0089 125.943 112.819 125.887 121.167 124.823L127.05 124.094L127.218 105.662L127.33 87.2863L133.66 87.6225C165.09 89.5273 189.685 93.0008 205.596 97.8189C221.563 102.637 226.885 107.959 221.675 113.73C214.112 122.078 181.73 128.857 135.733 131.714C121.615 132.61 80.3251 132.61 66.2629 131.714C12.1992 128.352 -21.6957 119.781 -21.6957 109.528C-21.6957 103.421 -8.642 97.875 16.9612 93.0569C28.2782 90.9279 54.4977 88.1827 70.6328 87.4544L72.4256 87.3984V105.774Z" fill="#E90A27"/>
</svg>
