<svg width="14" height="14" viewBox="0 0 14 14" fill="none" xmlns="http://www.w3.org/2000/svg">
<g clip-path="url(#clip0_18_2)">
<path d="M8.45766 7C10.2069 5.25081 11.956 3.50162 13.7052 1.75243C14.6284 0.829241 13.1708 -0.628418 12.2476 0.294766C10.4984 2.04396 8.74919 3.79315 7 5.54234C5.25081 3.79315 3.50162 2.04396 1.75243 0.294766C0.829241 -0.628418 -0.628418 0.829241 0.294766 1.75243C2.04396 3.50162 3.79315 5.25081 5.54234 7C3.79315 8.74919 2.04396 10.4984 0.294766 12.2476C-0.628418 13.1708 0.829241 14.6284 1.75243 13.7052C3.50162 11.956 5.25081 10.2069 7 8.45766C8.74919 10.2069 10.4984 11.956 12.2476 13.7052C13.1708 14.6284 14.6284 13.1708 13.7052 12.2476C11.956 10.4984 10.2069 8.74919 8.45766 7Z" fill="black"/>
</g>
<defs>
<clipPath id="clip0_18_2">
<rect width="14" height="14" fill="white"/>
</clipPath>
</defs>
</svg>
