<svg width="72" height="72" viewBox="0 0 72 72" fill="none" xmlns="http://www.w3.org/2000/svg">
<rect width="72" height="72" rx="16" fill="white"/>
<path d="M33.9167 53.5H38.1167C39.7167 53.5 40.75 52.3666 40.45 50.9833L39.7667 47.9667H32.2667L31.5834 50.9833C31.2834 52.2833 32.4167 53.5 33.9167 53.5Z" stroke="#F79726" stroke-width="2.5" stroke-linecap="round" stroke-linejoin="round"/>
<path d="M39.7667 47.9501L42.65 45.3834C44.2667 43.95 44.3334 42.9499 43.05 41.3333L37.9667 34.8834C36.9 33.5334 35.15 33.5334 34.0834 34.8834L29 41.3333C27.7167 42.9499 27.7167 44 29.4 45.3834L32.2834 47.9501" stroke="#F79726" stroke-width="2.5" stroke-linecap="round" stroke-linejoin="round"/>
<path d="M36.0167 34.5333V38.75" stroke="#F79726" stroke-width="2.5" stroke-linecap="round" stroke-linejoin="round"/>
<path d="M34.5834 24.65L33.2834 23.35C32.5 22.5666 32.5 21.3001 33.2834 20.5167L34.5834 19.2167C35.3667 18.4333 36.6334 18.4333 37.4167 19.2167L38.7167 20.5167C39.5 21.3001 39.5 22.5666 38.7167 23.35L37.4167 24.65C36.6334 25.4334 35.3667 25.4334 34.5834 24.65Z" stroke="#F79726" stroke-width="2.5" stroke-linecap="round" stroke-linejoin="round"/>
<path d="M48.4167 32.35H50.25C51.35 32.35 52.25 33.25 52.25 34.35V36.1833C52.25 37.2833 51.35 38.1834 50.25 38.1834H48.4167C47.3167 38.1834 46.4167 37.2833 46.4167 36.1833V34.35C46.4167 33.25 47.3167 32.35 48.4167 32.35Z" stroke="#F79726" stroke-width="2.5" stroke-linecap="round" stroke-linejoin="round"/>
<path d="M23.5833 32.35H21.75C20.65 32.35 19.75 33.25 19.75 34.35V36.1833C19.75 37.2833 20.65 38.1834 21.75 38.1834H23.5833C24.6833 38.1834 25.5833 37.2833 25.5833 36.1833V34.35C25.5833 33.25 24.6833 32.35 23.5833 32.35Z" stroke="#F79726" stroke-width="2.5" stroke-linecap="round" stroke-linejoin="round"/>
<path d="M46.9 32.8333L38.0667 24" stroke="#F79726" stroke-width="2.5" stroke-linecap="round" stroke-linejoin="round"/>
<path d="M25.1 32.8333L33.9333 24" stroke="#F79726" stroke-width="2.5" stroke-linecap="round" stroke-linejoin="round"/>
</svg>
