<svg width="101" height="101" viewBox="0 0 101 101" fill="none" xmlns="http://www.w3.org/2000/svg">
<rect y="42.919" width="72" height="72" rx="16" transform="rotate(-36.5909 0 42.919)" fill="white"/>
<path d="M72.9802 50.2706L59.0317 31.5655C57.0391 28.8933 54.7067 28.5535 52.0345 30.5462L46.6902 34.5315C44.018 36.5241 43.6782 38.8565 45.6709 41.5287L59.6194 60.2338C61.612 62.906 63.9444 63.2458 66.6166 61.2531L71.9609 57.2678C74.6331 55.2752 74.9729 52.9428 72.9802 50.2706Z" stroke="#2F7DC7" stroke-width="2.5" stroke-linecap="round"/>
<path d="M46.6672 42.8647L53.3476 37.8831" stroke="#2F7DC7" stroke-width="2.5" stroke-linecap="round"/>
<path d="M58.623 58.8978L63.9674 54.9125" stroke="#2F7DC7" stroke-width="2.5" stroke-linecap="round"/>
<path d="M54.588 53.4866L61.3182 48.5718" stroke="#2F7DC7" stroke-width="2.5" stroke-linecap="round"/>
<path d="M50.6525 48.2091L54.6607 45.2201" stroke="#2F7DC7" stroke-width="2.5" stroke-linecap="round"/>
<path d="M34.6921 43.4784C32.5143 45.1024 32.0624 48.2045 33.6765 50.369L46.5888 67.6846C47.0371 68.2859 47.9685 69.0051 48.6644 69.297L51.1149 70.2971C53.9351 71.4582 56.006 69.9139 55.6977 66.8797L55.4383 64.2457C55.357 63.4954 54.9334 62.3976 54.485 61.7964L41.5727 44.4807C39.9587 42.3163 36.8566 41.8644 34.6921 43.4784Z" stroke="#2F7DC7" stroke-width="2.5" stroke-linecap="round"/>
<path d="M43.6152 47.2197L35.7189 53.1079" stroke="#2F7DC7" stroke-width="2.5" stroke-linecap="round"/>
</svg>
