<svg width="30" height="30" viewBox="0 0 30 30" fill="none" xmlns="http://www.w3.org/2000/svg">
<path d="M14.9997 0C6.72848 0 0 6.729 0 15C0 23.271 6.72848 30 14.9997 30C23.2709 30 30 23.271 30 15C30 6.729 23.2709 0 14.9997 0ZM14.9997 28.0328C7.8135 28.0328 1.96725 22.1862 1.96725 15C1.96725 7.81373 7.81343 1.96733 14.9997 1.96733C22.186 1.96733 28.0325 7.8138 28.0325 15C28.0326 22.1862 22.1859 28.0328 14.9997 28.0328Z" fill="white"/>
<path d="M20.4305 10.0894L12.6956 17.8239L9.56896 14.6979C9.18473 14.3141 8.56231 14.3139 8.17808 14.6981C7.79371 15.0825 7.79371 15.705 8.17808 16.0892L12.0003 19.9108C12.1924 20.1027 12.444 20.1987 12.6956 20.1987C12.9473 20.1987 13.1996 20.1027 13.3916 19.9105C13.3922 19.9097 13.3926 19.9089 13.3936 19.9079L21.8213 11.4803C22.2056 11.0963 22.2056 10.4734 21.8213 10.0894C21.4371 9.70514 20.8142 9.70514 20.4305 10.0894Z" fill="white"/>
</svg>
