<svg width="48" height="52" viewBox="0 0 48 52" fill="none" xmlns="http://www.w3.org/2000/svg">
<path d="M11.3579 13.1512L0 47.8226L11.5571 41.0477L11.3579 13.1512Z" fill="url(#paint0_linear)"/>
<path d="M35.402 27.3182L11.2188 4.0378e-05L11.2267 13.3965L35.402 27.3182Z" fill="url(#paint1_linear)"/>
<path d="M11.3168 41.3151L47.0452 33.927L35.4202 27.2694L11.3168 41.3151Z" fill="url(#paint2_linear)"/>
<g clip-path="url(#clip0)">
<path d="M22.0841 27.0354C22.4909 26.8513 22.8131 26.5751 23.0508 26.2069C23.2884 25.8386 23.4072 25.4341 23.4072 24.993C23.4072 24.5862 23.3109 24.2191 23.1181 23.8914C22.9254 23.5638 22.6847 23.3016 22.3956 23.1046C22.1066 22.9076 21.779 22.7782 21.4128 22.7161C21.3532 22.706 21.2866 22.697 21.2168 22.6884V22.1066C21.2168 21.8927 21.0434 21.7194 20.8295 21.7194H20.055C19.841 21.7194 19.6677 21.8927 19.6677 22.1066V22.623H18.86V22.1066C18.86 21.8927 18.6866 21.7194 18.4727 21.7194H17.6981C17.4842 21.7194 17.3109 21.8927 17.3109 22.1066V22.623H15.9824V32.0389H17.3111V32.4907C17.3111 32.7046 17.4845 32.878 17.6984 32.878H18.4729C18.6868 32.878 18.8602 32.7046 18.8602 32.4907V32.0389H19.1875C19.3567 32.0377 19.5162 32.0362 19.6679 32.0345V32.4907C19.6679 32.7046 19.8413 32.878 20.0552 32.878H20.8298C21.0437 32.878 21.217 32.7046 21.217 32.4907V31.9947C21.3246 31.9886 21.4133 31.9819 21.4805 31.9747C21.9858 31.9191 22.4107 31.7702 22.7554 31.5283C23.1 31.2864 23.3719 30.9632 23.5711 30.5585C23.7702 30.1538 23.8697 29.7375 23.8697 29.3093C23.8697 28.7654 23.7156 28.2923 23.4073 27.8898C23.099 27.4873 22.6579 27.2025 22.0841 27.0354ZM18.9755 24.1902C19.8705 24.1902 20.4121 24.2009 20.6005 24.2223C20.9174 24.2609 21.1561 24.3711 21.3167 24.553C21.4773 24.7349 21.5576 24.9715 21.5576 25.2628C21.5576 25.5668 21.4644 25.8119 21.2781 25.9982C21.0918 26.1845 20.836 26.2969 20.5105 26.3354C20.3307 26.3568 19.8703 26.3675 19.1296 26.3675H17.8837V24.1902H18.9755ZM21.6378 30.019C21.46 30.2181 21.2299 30.3434 20.9472 30.3948C20.7631 30.4334 20.3285 30.4526 19.6434 30.4526H17.8835V27.9347H19.4185C20.2834 27.9347 20.8455 27.9796 21.1046 28.0696C21.3637 28.1596 21.5617 28.303 21.6987 28.5C21.8356 28.697 21.9042 28.9367 21.9042 29.2194C21.9043 29.5532 21.8155 29.8198 21.6378 30.019Z" fill="url(#paint3_linear)"/>
</g>
<defs>
<linearGradient id="paint0_linear" x1="5.77856" y1="13.1512" x2="5.77856" y2="47.8226" gradientUnits="userSpaceOnUse">
<stop stop-color="#6563FF"/>
<stop offset="0.489583" stop-color="#A2A1FF"/>
<stop offset="1" stop-color="#C1C0FF"/>
</linearGradient>
<linearGradient id="paint1_linear" x1="38.2207" y1="22.5032" x2="8.29942" y2="4.98692" gradientUnits="userSpaceOnUse">
<stop stop-color="#6563FF"/>
<stop offset="0.489583" stop-color="#A2A1FF"/>
<stop offset="1" stop-color="#C1C0FF"/>
</linearGradient>
<linearGradient id="paint2_linear" x1="14.0914" y1="46.1556" x2="44.1716" y2="28.9136" gradientUnits="userSpaceOnUse">
<stop stop-color="#6563FF"/>
<stop offset="0.489583" stop-color="#A2A1FF"/>
<stop offset="1" stop-color="#C1C0FF"/>
</linearGradient>
<linearGradient id="paint3_linear" x1="19.926" y1="21.7194" x2="19.926" y2="32.878" gradientUnits="userSpaceOnUse">
<stop stop-color="#6563FF"/>
<stop offset="0.489583" stop-color="#A2A1FF"/>
<stop offset="1" stop-color="#C1C0FF"/>
</linearGradient>
<clipPath id="clip0">
<rect width="11.1586" height="11.1586" fill="white" transform="translate(14.3468 21.7194)"/>
</clipPath>
</defs>
</svg>
