<svg width="104" height="27" viewBox="0 0 104 27" fill="none" xmlns="http://www.w3.org/2000/svg">
<path d="M5.95681 19.0773C5.23075 19.0773 4.44931 18.9788 3.61249 18.7819C2.78798 18.585 2.14191 18.3697 1.67428 18.1359L1.95117 15.6254C3.57557 16.413 5.00308 16.8068 6.23369 16.8068C6.88592 16.8068 7.39662 16.6837 7.76581 16.4376C8.13499 16.1792 8.31958 15.8038 8.31958 15.3116C8.31958 14.9424 8.21498 14.6409 8.00578 14.4071C7.80888 14.161 7.51968 13.9579 7.13819 13.798C6.7567 13.6257 6.14755 13.3919 5.31074 13.0965C4.52314 12.8258 3.87092 12.5427 3.35406 12.2474C2.83721 11.9397 2.42495 11.5521 2.1173 11.0845C1.82195 10.6045 1.67428 10.02 1.67428 9.33083C1.67428 8.22328 2.08038 7.33109 2.89258 6.65425C3.70479 5.97742 4.86772 5.639 6.38137 5.639C7.09512 5.639 7.80272 5.71899 8.50417 5.87897C9.21793 6.03895 9.87015 6.23585 10.4608 6.46966L10.2209 8.88781C9.4579 8.55555 8.75645 8.30943 8.11653 8.14945C7.48892 7.97716 6.86131 7.89102 6.23369 7.89102C5.53225 7.89102 4.99693 8.00793 4.62775 8.24174C4.25856 8.47556 4.07397 8.81398 4.07397 9.257C4.07397 9.60157 4.17242 9.88461 4.36932 10.1061C4.56622 10.3276 4.8308 10.5122 5.16306 10.6599C5.50763 10.8076 6.01218 10.986 6.67671 11.1952C8.16575 11.6628 9.24869 12.2043 9.92553 12.8196C10.6147 13.4226 10.9592 14.2533 10.9592 15.3116C10.9592 16.3207 10.6085 17.2006 9.90707 17.9513C9.20562 18.7019 7.88887 19.0773 5.95681 19.0773ZM23.6052 18.8188L22.4977 10.1615L19.1935 16.1053L15.8708 10.18L14.7633 18.8188H12.3082L14.0987 5.89743H16.037L19.1935 11.7859L22.3315 5.89743H24.2697L26.0603 18.8188H23.6052ZM34.9947 15.7546H30.2876L29.2169 18.8188H26.928L31.5243 5.89743H33.7579L38.3542 18.8188H36.0653L34.9947 15.7546ZM34.2563 13.6872L32.6504 9.07241L31.0259 13.6872H34.2563ZM39.831 5.89743H44.5565C45.9348 5.89743 47.0177 6.22969 47.8053 6.89422C48.6052 7.54645 49.0052 8.51863 49.0052 9.81077C49.0052 10.7091 48.8144 11.4475 48.4329 12.0259C48.0515 12.592 47.51 13.0473 46.8085 13.3919L49.7251 18.8188H47.0854L44.5934 14.0195H44.5011H42.1937V18.8188H39.831V5.89743ZM43.9289 12.0443C45.6641 12.0443 46.5317 11.3429 46.5317 9.93999C46.5317 9.26315 46.3348 8.75245 45.941 8.40787C45.5472 8.051 44.9072 7.87256 44.0212 7.87256H42.1937V12.0443H43.9289ZM53.7702 8.18636H50.1153V5.89743H59.7879V8.18636H56.133V18.8188H53.7702V8.18636ZM67.0981 19.0773C65.7936 19.0773 64.6368 18.8004 63.6277 18.2466C62.6309 17.6928 61.8556 16.9114 61.3019 15.9023C60.7481 14.8809 60.4712 13.6995 60.4712 12.3581C60.4712 11.0291 60.7542 9.86 61.3203 8.85089C61.8987 7.82949 62.6925 7.0419 63.7016 6.48812C64.723 5.92204 65.8797 5.639 67.1719 5.639C68.4148 5.639 69.5285 5.89127 70.513 6.39582L70.2546 8.64784C69.7254 8.41403 69.2147 8.23559 68.7225 8.11253C68.2425 7.97716 67.7195 7.90948 67.1534 7.90948C65.8367 7.90948 64.8214 8.31558 64.1077 9.12778C63.4062 9.93999 63.0555 11.0168 63.0555 12.3581C63.0555 13.6995 63.4001 14.7763 64.0892 15.5885C64.7907 16.4007 65.7936 16.8068 67.0981 16.8068C67.6764 16.8068 68.2056 16.7453 68.6855 16.6222C69.1778 16.4991 69.7008 16.3146 70.2546 16.0684L70.513 18.3205C69.4424 18.825 68.3041 19.0773 67.0981 19.0773ZM77.9259 19.0773C76.7076 19.0773 75.6124 18.8004 74.6402 18.2466C73.6803 17.6805 72.9235 16.8929 72.3697 15.8838C71.8283 14.8624 71.5575 13.6872 71.5575 12.3581C71.5575 11.0291 71.8283 9.86 72.3697 8.85089C72.9235 7.82949 73.6803 7.0419 74.6402 6.48812C75.6124 5.92204 76.7076 5.639 77.9259 5.639C79.1442 5.639 80.2333 5.92204 81.1932 6.48812C82.1654 7.0419 82.9222 7.82949 83.4637 8.85089C84.0175 9.86 84.2944 11.0291 84.2944 12.3581C84.2944 13.6872 84.0175 14.8624 83.4637 15.8838C82.9222 16.8929 82.1654 17.6805 81.1932 18.2466C80.2333 18.8004 79.1442 19.0773 77.9259 19.0773ZM77.9259 16.7883C79.1812 16.7883 80.141 16.3822 80.8056 15.57C81.4824 14.7578 81.8208 13.6872 81.8208 12.3581C81.8208 11.0291 81.4824 9.95844 80.8056 9.14624C80.141 8.33404 79.1812 7.92794 77.9259 7.92794C76.6707 7.92794 75.7047 8.33404 75.0278 9.14624C74.3633 9.95844 74.0311 11.0291 74.0311 12.3581C74.0311 13.6872 74.3633 14.7578 75.0278 15.57C75.7047 16.3822 76.6707 16.7883 77.9259 16.7883ZM86.3575 5.89743H88.7202V18.8188H86.3575V5.89743ZM91.5671 5.89743H93.893L99.4123 14.241V5.89743H101.775V18.8188H99.8368L93.9299 9.95845V18.8188H91.5671V5.89743Z" fill="url(#paint0_linear)"/>
<path d="M4.33856 22.6713C4.88823 22.8312 5.16306 23.2066 5.16306 23.7973C5.16306 24.1788 5.03795 24.4782 4.78773 24.6956C4.54161 24.913 4.20319 25.0217 3.77247 25.0217H2.03731V20.7146H3.56327C3.96937 20.7146 4.27702 20.8028 4.48623 20.9792C4.69543 21.1556 4.80003 21.416 4.80003 21.7606C4.80003 21.9698 4.76107 22.1524 4.68313 22.3082C4.60519 22.46 4.49033 22.581 4.33856 22.6713ZM2.75107 22.4436H3.46482C3.66992 22.4436 3.82375 22.4026 3.9263 22.3205C4.03295 22.2344 4.08628 22.0929 4.08628 21.896C4.08628 21.6991 4.03295 21.5596 3.9263 21.4776C3.82375 21.3914 3.66992 21.3484 3.46482 21.3484H2.75107V22.4436ZM3.68018 24.3818C4.16832 24.3818 4.41239 24.1665 4.41239 23.7357C4.41239 23.5019 4.34676 23.3358 4.21549 23.2373C4.08833 23.1348 3.90989 23.0835 3.68018 23.0835H2.75107V24.3818H3.68018ZM5.82288 20.7146H6.53664V24.3818H8.38256V25.0217H5.82288V20.7146ZM10.6678 25.1079C10.2576 25.1079 9.89251 25.0156 9.57255 24.831C9.25259 24.6464 9.00031 24.3859 8.81572 24.0495C8.63523 23.7091 8.54499 23.3153 8.54499 22.8682C8.54499 22.421 8.63523 22.0293 8.81572 21.6929C9.00031 21.3525 9.25259 21.0899 9.57255 20.9053C9.89251 20.7207 10.2576 20.6284 10.6678 20.6284C11.078 20.6284 11.4431 20.7207 11.763 20.9053C12.083 21.0899 12.3332 21.3525 12.5137 21.6929C12.6983 22.0293 12.7906 22.421 12.7906 22.8682C12.7906 23.3153 12.6983 23.7091 12.5137 24.0495C12.3332 24.3859 12.083 24.6464 11.763 24.831C11.4431 25.0156 11.078 25.1079 10.6678 25.1079ZM10.6678 24.4187C11.1067 24.4187 11.4431 24.2752 11.6769 23.988C11.9148 23.7009 12.0338 23.3276 12.0338 22.8682C12.0338 22.4087 11.9148 22.0354 11.6769 21.7483C11.4431 21.4612 11.1067 21.3176 10.6678 21.3176C10.2289 21.3176 9.89046 21.4612 9.65254 21.7483C9.41462 22.0354 9.29566 22.4087 9.29566 22.8682C9.29566 23.3276 9.41462 23.7009 9.65254 23.988C9.89046 24.2752 10.2289 24.4187 10.6678 24.4187ZM15.4344 25.1079C15.0078 25.1079 14.6283 25.0156 14.2961 24.831C13.9638 24.6464 13.7033 24.3859 13.5146 24.0495C13.33 23.7091 13.2378 23.3153 13.2378 22.8682C13.2378 22.421 13.3321 22.0293 13.5208 21.6929C13.7136 21.3525 13.9782 21.0899 14.3145 20.9053C14.6509 20.7207 15.0324 20.6284 15.459 20.6284C15.6723 20.6284 15.8754 20.651 16.0682 20.6961C16.261 20.7413 16.4332 20.8028 16.585 20.8807L16.5112 21.5576C16.1543 21.3894 15.8015 21.3053 15.4529 21.3053C15.1493 21.3053 14.8888 21.373 14.6714 21.5083C14.4581 21.6396 14.2961 21.8242 14.1853 22.0621C14.0746 22.2959 14.0192 22.5646 14.0192 22.8682C14.0192 23.1717 14.0725 23.4424 14.1792 23.6804C14.2899 23.9142 14.452 24.0988 14.6653 24.2341C14.8786 24.3654 15.137 24.431 15.4405 24.431C15.6333 24.431 15.8138 24.4105 15.982 24.3695C16.1543 24.3285 16.3307 24.267 16.5112 24.1849L16.585 24.8556C16.2404 25.0238 15.8569 25.1079 15.4344 25.1079ZM17.2637 20.7146H17.9775V25.0217H17.2637V20.7146ZM18.039 22.7451L19.6327 20.7146H20.4756L18.8635 22.7389L20.4818 25.0217H19.6327L18.039 22.7451ZM22.7592 25.1079C22.3326 25.1079 21.9531 25.0156 21.6209 24.831C21.2886 24.6464 21.0281 24.3859 20.8394 24.0495C20.6548 23.7091 20.5625 23.3153 20.5625 22.8682C20.5625 22.421 20.6569 22.0293 20.8456 21.6929C21.0384 21.3525 21.303 21.0899 21.6393 20.9053C21.9757 20.7207 22.3572 20.6284 22.7838 20.6284C22.9971 20.6284 23.2001 20.651 23.3929 20.6961C23.5857 20.7413 23.758 20.8028 23.9098 20.8807L23.836 21.5576C23.4791 21.3894 23.1263 21.3053 22.7776 21.3053C22.4741 21.3053 22.2136 21.373 21.9962 21.5083C21.7829 21.6396 21.6209 21.8242 21.5101 22.0621C21.3993 22.2959 21.344 22.5646 21.344 22.8682C21.344 23.1717 21.3973 23.4424 21.504 23.6804C21.6147 23.9142 21.7767 24.0988 21.99 24.2341C22.2033 24.3654 22.4618 24.431 22.7653 24.431C22.9581 24.431 23.1386 24.4105 23.3068 24.3695C23.4791 24.3285 23.6555 24.267 23.836 24.1849L23.9098 24.8556C23.5652 25.0238 23.1817 25.1079 22.7592 25.1079ZM24.5885 20.7146H25.3023V22.4436H27.3512V20.7146H28.065V25.0217H27.3512V23.1143H25.3023V25.0217H24.5885V20.7146ZM31.2566 23.9511H29.6568L29.2815 25.0217H28.5677L30.106 20.7146H30.8074L32.3395 25.0217H31.6319L31.2566 23.9511ZM31.0289 23.3173L30.4567 21.6806L29.8783 23.3173H31.0289ZM32.8507 20.7146H33.5644V25.0217H32.8507V20.7146ZM34.5271 20.7146H35.2532L37.1914 23.6557V20.7146H37.9113V25.0217H37.3206L35.2409 21.9021V25.0217H34.5271V20.7146ZM41.0965 21.3914H39.8659V20.7146H43.0409V21.3914H41.8103V25.0217H41.0965V21.3914ZM45.3809 25.1079C44.9707 25.1079 44.6056 25.0156 44.2856 24.831C43.9657 24.6464 43.7134 24.3859 43.5288 24.0495C43.3483 23.7091 43.2581 23.3153 43.2581 22.8682C43.2581 22.421 43.3483 22.0293 43.5288 21.6929C43.7134 21.3525 43.9657 21.0899 44.2856 20.9053C44.6056 20.7207 44.9707 20.6284 45.3809 20.6284C45.7911 20.6284 46.1562 20.7207 46.4761 20.9053C46.7961 21.0899 47.0463 21.3525 47.2268 21.6929C47.4114 22.0293 47.5037 22.421 47.5037 22.8682C47.5037 23.3153 47.4114 23.7091 47.2268 24.0495C47.0463 24.3859 46.7961 24.6464 46.4761 24.831C46.1562 25.0156 45.7911 25.1079 45.3809 25.1079ZM45.3809 24.4187C45.8198 24.4187 46.1562 24.2752 46.39 23.988C46.6279 23.7009 46.7469 23.3276 46.7469 22.8682C46.7469 22.4087 46.6279 22.0354 46.39 21.7483C46.1562 21.4612 45.8198 21.3176 45.3809 21.3176C44.942 21.3176 44.6036 21.4612 44.3656 21.7483C44.1277 22.0354 44.0088 22.4087 44.0088 22.8682C44.0088 23.3276 44.1277 23.7009 44.3656 23.988C44.6036 24.2752 44.942 24.4187 45.3809 24.4187ZM50.0798 25.1079C49.6696 25.1079 49.3045 25.0156 48.9846 24.831C48.6646 24.6464 48.4123 24.3859 48.2277 24.0495C48.0472 23.7091 47.957 23.3153 47.957 22.8682C47.957 22.421 48.0472 22.0293 48.2277 21.6929C48.4123 21.3525 48.6646 21.0899 48.9846 20.9053C49.3045 20.7207 49.6696 20.6284 50.0798 20.6284C50.49 20.6284 50.8551 20.7207 51.1751 20.9053C51.495 21.0899 51.7452 21.3525 51.9257 21.6929C52.1103 22.0293 52.2026 22.421 52.2026 22.8682C52.2026 23.3153 52.1103 23.7091 51.9257 24.0495C51.7452 24.3859 51.495 24.6464 51.1751 24.831C50.8551 25.0156 50.49 25.1079 50.0798 25.1079ZM50.0798 24.4187C50.5187 24.4187 50.8551 24.2752 51.0889 23.988C51.3268 23.7009 51.4458 23.3276 51.4458 22.8682C51.4458 22.4087 51.3268 22.0354 51.0889 21.7483C50.8551 21.4612 50.5187 21.3176 50.0798 21.3176C49.6409 21.3176 49.3025 21.4612 49.0646 21.7483C48.8266 22.0354 48.7077 22.4087 48.7077 22.8682C48.7077 23.3276 48.8266 23.7009 49.0646 23.988C49.3025 24.2752 49.6409 24.4187 50.0798 24.4187ZM52.9082 20.7146H53.622V24.3818H55.4679V25.0217H52.9082V20.7146Z" fill="#6DB8FF"/>
<defs>
<linearGradient id="paint0_linear" x1="51.9996" y1="0.818848" x2="51.9996" y2="23.2519" gradientUnits="userSpaceOnUse">
<stop stop-color="#6563FF"/>
<stop offset="0.489583" stop-color="#A2A1FF"/>
<stop offset="1" stop-color="#C1C0FF"/>
</linearGradient>
</defs>
</svg>
