<svg width="30" height="30" viewBox="0 0 30 30" fill="none" xmlns="http://www.w3.org/2000/svg">
<path d="M19 0H11C4.93333 0 0 4.93333 0 11V19C0 25.0667 4.93333 30 11 30H19C25.0667 30 30 25.0667 30 19V11C30 4.93333 25.0667 0 19 0ZM28 19C28 23.9667 23.9667 28 19 28H11C6.03333 28 2 23.9667 2 19V11C2 6.03333 6.03333 2 11 2H19C23.9667 2 28 6.03333 28 11V19ZM21.6667 14.6667C21.6667 15.2333 21.2333 15.6667 20.6667 15.6667H16V20.3333C16 20.9 15.5667 21.3333 15 21.3333C14.4333 21.3333 14 20.9 14 20.3333V15.6667H9.33333C8.76667 15.6667 8.33333 15.2333 8.33333 14.6667C8.33333 14.1 8.76667 13.6667 9.33333 13.6667H14V9C14 8.43333 14.4333 8 15 8C15.5667 8 16 8.43333 16 9V13.6667H20.6667C21.2333 13.6667 21.6667 14.1 21.6667 14.6667Z" fill="#000"/>
</svg>
