<svg width="12" height="13" viewBox="0 0 12 13" fill="none" xmlns="http://www.w3.org/2000/svg">
<path d="M0.851562 2.8125C0.851562 2.13542 1.0599 1.57552 1.47656 1.13281C1.89844 0.684896 2.43229 0.460938 3.07812 0.460938C3.72396 0.460938 4.25521 0.684896 4.67188 1.13281C5.09375 1.57552 5.30469 2.15104 5.30469 2.85938V3.41406C5.30469 4.08073 5.09635 4.63802 4.67969 5.08594C4.26823 5.52865 3.73958 5.75 3.09375 5.75C2.45312 5.75 1.91927 5.53125 1.49219 5.09375C1.0651 4.65625 0.851562 4.07812 0.851562 3.35938V2.8125ZM1.60938 3.41406C1.60938 3.89844 1.74219 4.29688 2.00781 4.60938C2.27865 4.92188 2.64062 5.07812 3.09375 5.07812C3.53646 5.07812 3.88802 4.92188 4.14844 4.60938C4.41406 4.29167 4.54688 3.88281 4.54688 3.38281V2.8125C4.54688 2.32812 4.41146 1.92969 4.14062 1.61719C3.86979 1.29948 3.51562 1.14062 3.07812 1.14062C2.64583 1.14062 2.29167 1.29688 2.01562 1.60938C1.74479 1.92188 1.60938 2.33854 1.60938 2.85938V3.41406ZM6.57812 9.21094C6.57812 8.53385 6.78646 7.97396 7.20312 7.53125C7.625 7.08854 8.15625 6.86719 8.79688 6.86719C9.4375 6.86719 9.96875 7.08854 10.3906 7.53125C10.8177 7.96875 11.0312 8.54688 11.0312 9.26562V9.82031C11.0312 10.4974 10.8203 11.0573 10.3984 11.5C9.98177 11.9427 9.45312 12.1641 8.8125 12.1641C8.17188 12.1641 7.63802 11.9453 7.21094 11.5078C6.78906 11.0651 6.57812 10.4896 6.57812 9.78125V9.21094ZM7.32812 9.82031C7.32812 10.3099 7.46094 10.7109 7.72656 11.0234C7.9974 11.3359 8.35938 11.4922 8.8125 11.4922C9.26042 11.4922 9.61458 11.3359 9.875 11.0234C10.1406 10.7057 10.2734 10.2917 10.2734 9.78125V9.21094C10.2734 8.71094 10.138 8.3099 9.86719 8.00781C9.60156 7.70052 9.24479 7.54688 8.79688 7.54688C8.35938 7.54688 8.00521 7.70052 7.73438 8.00781C7.46354 8.3151 7.32812 8.72656 7.32812 9.24219V9.82031ZM3.39062 11.0547L2.80469 10.6797L8.35938 1.78906L8.94531 2.16406L3.39062 11.0547Z" fill="#6DB8FF"/>
</svg>
