<svg width="14" height="14" viewBox="0 0 14 14" fill="none" xmlns="http://www.w3.org/2000/svg">
<path d="M0.7 6.29999C0.313402 6.29999 0 6.61338 0 6.99999C0 7.38657 0.313402 7.69999 0.7 7.69999H13.3C13.6866 7.69999 14 7.38657 14 6.99999C14 6.61338 13.6866 6.29999 13.3 6.29999H0.7Z" fill="#6DB8FF"/>
<path d="M7.69995 0.7C7.69995 0.313402 7.38656 -1.36987e-08 6.99995 -3.0598e-08C6.61336 -4.74962e-08 6.29995 0.313402 6.29995 0.7L6.29995 13.3C6.29995 13.6866 6.61336 14 6.99995 14C7.38656 14 7.69995 13.6866 7.69995 13.3L7.69995 0.7Z" fill="#6DB8FF"/>
</svg>
