<svg width="1792" height="1792" viewBox="0 0 1792 1792" fill="none" xmlns="http://www.w3.org/2000/svg">
<path d="M1082.2 896.6L1492.4 486.6C1543.9 435.1 1543.9 352 1492.4 300.5C1440.9 249 1357.8 249 1306.3 300.5L896.1 710.5L486 300.4C434.5 248.9 351.4 248.9 299.9 300.4C248.4 351.9 248.4 435 299.9 486.5L710.1 896.5L299.9 1306.5C248.4 1358 248.4 1441.1 299.9 1492.6C351.5 1544.1 434.9 1544.1 486 1492.6L896.2 1082.6L1306.4 1492.6C1357.9 1544.1 1441 1544.1 1492.5 1492.6C1543.6 1441.1 1543.6 1358 1492 1306.4L1082.2 896.6Z" fill="white"/>
</svg>
