<svg width="30" height="30" viewBox="0 0 30 30" fill="none" xmlns="http://www.w3.org/2000/svg">
<path d="M16.3417 15L20.3917 10.95C20.5282 10.7906 20.5995 10.5855 20.5914 10.3758C20.5833 10.1661 20.4964 9.96711 20.348 9.8187C20.1996 9.67029 20.0006 9.58334 19.7909 9.57524C19.5811 9.56714 19.3761 9.63848 19.2167 9.775L15.1667 13.7833L11.0917 9.70833C10.9322 9.57181 10.7272 9.50047 10.5175 9.50858C10.3077 9.51668 10.1088 9.60362 9.96036 9.75203C9.81195 9.90044 9.725 10.0994 9.7169 10.3091C9.7088 10.5189 9.78014 10.7239 9.91666 10.8833L13.9833 15L10 18.9333C9.91276 19.008 9.84191 19.1 9.79189 19.2034C9.74187 19.3067 9.71376 19.4194 9.70933 19.5341C9.7049 19.6489 9.72424 19.7633 9.76613 19.8703C9.80803 19.9772 9.87158 20.0743 9.95279 20.1555C10.034 20.2368 10.1311 20.3003 10.2381 20.3422C10.345 20.3841 10.4594 20.4034 10.5742 20.399C10.689 20.3946 10.8016 20.3665 10.905 20.3164C11.0084 20.2664 11.1003 20.1956 11.175 20.1083L15.15 16.1333L19.1 20.0833C19.2594 20.2199 19.4645 20.2912 19.6742 20.2831C19.8839 20.275 20.0829 20.188 20.2313 20.0396C20.3797 19.8912 20.4667 19.6923 20.4748 19.4825C20.4829 19.2728 20.4115 19.0678 20.275 18.9083L16.3417 15Z" fill="white"/>
<path d="M15 28.3333C12.3629 28.3333 9.78505 27.5514 7.59239 26.0863C5.39974 24.6212 3.69077 22.5388 2.6816 20.1024C1.67243 17.6661 1.40839 14.9852 1.92286 12.3988C2.43733 9.81239 3.70721 7.43661 5.57191 5.57191C7.43661 3.70721 9.81238 2.43734 12.3988 1.92287C14.9852 1.4084 17.6661 1.67244 20.1024 2.68161C22.5388 3.69078 24.6212 5.39974 26.0863 7.5924C27.5513 9.78506 28.3333 12.3629 28.3333 15C28.3333 18.5362 26.9286 21.9276 24.4281 24.4281C21.9276 26.9286 18.5362 28.3333 15 28.3333V28.3333ZM15 3.33334C12.6925 3.33334 10.4369 4.01758 8.51834 5.29952C6.59977 6.58147 5.10442 8.40356 4.2214 10.5354C3.33838 12.6672 3.10734 15.0129 3.5575 17.2761C4.00766 19.5392 5.1188 21.618 6.75042 23.2496C8.38203 24.8812 10.4608 25.9923 12.7239 26.4425C14.9871 26.8927 17.3328 26.6616 19.4646 25.7786C21.5964 24.8956 23.4185 23.4002 24.7005 21.4817C25.9824 19.5631 26.6667 17.3075 26.6667 15C26.6667 11.9058 25.4375 8.93835 23.2496 6.75042C21.0617 4.5625 18.0942 3.33334 15 3.33334V3.33334Z" fill="white"/>
</svg>
