<svg width="266" height="122" viewBox="0 0 266 122" fill="none" xmlns="http://www.w3.org/2000/svg">
<path d="M134.078 0.830444H131.922V24.3822H134.078V0.830444Z" fill="#C4C4C4"/>
<path d="M247.553 66.1981L227.115 77.981L228.193 79.8433L248.632 68.0604L247.553 66.1981Z" fill="#C4C4C4"/>
<path d="M198.504 18.0309L186.688 38.4197L188.554 39.4963L200.37 19.1076L198.504 18.0309Z" fill="#C4C4C4"/>
<path d="M18.4356 66.1841L17.3579 68.0466L37.7987 79.8224L38.8764 77.96L18.4356 66.1841Z" fill="#C4C4C4"/>
<path d="M67.4792 18.0547L65.6124 19.1301L77.4143 39.5282L79.2811 38.4529L67.4792 18.0547Z" fill="#C4C4C4"/>
<path d="M120.17 1.45146L118.026 1.67621L118.971 10.6524L121.115 10.4276L120.17 1.45146Z" fill="#C4C4C4"/>
<path d="M106.434 3.49151L104.326 3.93799L106.204 12.767L108.312 12.3206L106.434 3.49151Z" fill="#C4C4C4"/>
<path d="M92.957 6.99563L90.9067 7.65955L93.6992 16.2449L95.7494 15.581L92.957 6.99563Z" fill="#C4C4C4"/>
<path d="M79.9275 11.8617L77.9578 12.7353L81.6322 20.9831L83.6018 20.1095L79.9275 11.8617Z" fill="#C4C4C4"/>
<path d="M145.816 1.44196L144.862 10.4172L147.005 10.6441L147.96 1.66886L145.816 1.44196Z" fill="#C4C4C4"/>
<path d="M159.585 3.4917L157.712 12.3217L159.82 12.7671L161.694 3.9371L159.585 3.4917Z" fill="#C4C4C4"/>
<path d="M173.033 6.97066L170.241 15.556L172.291 16.2199L175.084 7.63458L173.033 6.97066Z" fill="#C4C4C4"/>
<path d="M186.041 11.8469L182.366 20.0938L184.335 20.9676L188.011 12.7207L186.041 11.8469Z" fill="#C4C4C4"/>
<path d="M256.266 121.586L256.054 119.435L265.029 118.483L265.276 120.634L256.266 121.586Z" fill="#C4C4C4"/>
<path d="M262.769 104.817L253.919 106.683L254.364 108.787L263.215 106.921L262.769 104.817Z" fill="#C4C4C4"/>
<path d="M259.085 91.4253L250.48 94.2116L251.146 96.2573L259.75 93.4711L259.085 91.4253Z" fill="#C4C4C4"/>
<path d="M253.956 78.5096L245.689 82.1732L246.564 84.1387L254.831 80.4751L253.956 78.5096Z" fill="#C4C4C4"/>
<path d="M56.8111 24.7781L55.0549 26.025L60.2996 33.3793L62.0558 32.1323L56.8111 24.7781Z" fill="#C4C4C4"/>
<path d="M45.8553 33.3372L44.2392 34.7603L50.2248 41.5279L51.8409 40.1048L45.8553 33.3372Z" fill="#C4C4C4"/>
<path d="M35.849 42.9549L34.3908 44.5387L41.0521 50.6447L42.5102 49.0609L35.849 42.9549Z" fill="#C4C4C4"/>
<path d="M26.9104 53.5739L25.6253 55.3007L32.8881 60.6819L34.1732 58.9551L26.9104 53.5739Z" fill="#C4C4C4"/>
<path d="M240.638 55.6605L233.271 60.8982L234.522 62.6497L241.889 57.412L240.638 55.6605Z" fill="#C4C4C4"/>
<path d="M231.923 44.8621L225.142 50.8363L226.569 52.4485L233.349 46.4743L231.923 44.8621Z" fill="#C4C4C4"/>
<path d="M222.099 34.994L215.982 41.6442L217.571 43.0985L223.687 36.4483L222.099 34.994Z" fill="#C4C4C4"/>
<path d="M211.273 26.2656L205.881 33.5134L207.612 34.7952L213.003 27.5475L211.273 26.2656Z" fill="#C4C4C4"/>
<path d="M9.69905 121.586L0.723999 120.634L0.936007 118.483L9.94639 119.435L9.69905 121.586Z" fill="#C4C4C4"/>
<path d="M3.25206 104.814L2.80438 106.917L11.6529 108.792L12.1006 106.688L3.25206 104.814Z" fill="#C4C4C4"/>
<path d="M6.93583 91.4139L6.27045 93.4594L14.8738 96.2457L15.5392 94.2002L6.93583 91.4139Z" fill="#C4C4C4"/>
<path d="M12.0298 78.5082L11.1542 80.4735L19.4202 84.1398L20.2957 82.1745L12.0298 78.5082Z" fill="#C4C4C4"/>
</svg>
