<svg width="30" height="30" viewBox="0 0 30 30" fill="none" xmlns="http://www.w3.org/2000/svg">
<path d="M10.2501 9.16663C9.38553 9.16663 8.66675 9.88539 8.66675 10.75C8.66675 11.6145 9.38553 12.3333 10.2501 12.3333C11.1146 12.3333 11.8334 11.6145 11.8334 10.75C11.8334 9.88539 11.1146 9.16663 10.2501 9.16663Z" fill="#C4C4C4"/>
<path d="M19.7498 9.16663C18.8853 9.16663 18.1665 9.88539 18.1665 10.75C18.1665 11.6145 18.8853 12.3333 19.7498 12.3333C20.6144 12.3333 21.3332 11.6145 21.3332 10.75C21.3332 9.88539 20.6144 9.16663 19.7498 9.16663Z" fill="#C4C4C4"/>
<path d="M15 0C6.7258 0 0 6.7258 0 15C0 23.2742 6.7258 30 15 30C23.2742 30 30 23.2742 30 15C30 6.7258 23.2742 0 15 0ZM15 1.83333C22.2892 1.83333 28.1667 7.7108 28.1667 15C28.1667 22.2892 22.2892 28.1667 15 28.1667C7.71082 28.1667 1.83333 22.2892 1.83333 15C1.83333 7.7108 7.7108 1.83333 15 1.83333Z" fill="#C4C4C4"/>
<path d="M22.1771 19.7916C22.6878 19.0134 22.1352 18.2742 21.4375 18.302C21.119 18.3147 20.8414 18.529 20.6667 18.7916C19.3931 20.7065 17.194 21.6666 15 21.6666C12.8061 21.6666 10.607 20.7065 9.33338 18.7916C9.15871 18.529 8.88112 18.3147 8.56255 18.302C7.86488 18.2742 7.31231 19.0134 7.82297 19.7916C9.45343 22.2764 12.2362 23.4999 15 23.4999C17.7639 23.4999 20.5467 22.2764 22.1771 19.7916Z" fill="#C4C4C4"/>
</svg>
